<svg width="407" height="347" viewBox="0 0 407 347" fill="none" xmlns="http://www.w3.org/2000/svg">
<path d="M327.46 176.677L327.46 176.677C318.82 167.603 306.827 162.478 294.3 162.5C294.3 162.5 294.3 162.5 294.3 162.5L148.229 162.809L148.191 162.809L148.152 162.808C145.076 162.655 142.5 165.109 142.5 168.195V271.47C142.5 277.782 144.963 283.858 149.361 288.403C149.361 288.403 149.361 288.403 149.361 288.403L203.717 344.531L203.718 344.532C205.694 346.575 209.146 345.155 209.123 342.333L209.123 342.33L208.779 284.815C208.682 269.051 221.794 256.416 237.548 257.07L401.603 263.807L401.604 263.807C404.932 263.946 406.752 259.989 404.498 257.558C404.496 257.556 404.494 257.554 404.492 257.552L327.46 176.677Z" stroke="#895BF7" stroke-opacity="0.18" stroke-width="3"/>
<path d="M84.9332 113.728L84.933 113.728C81.1248 109.743 75.8367 107.49 70.3122 107.5C70.3121 107.5 70.3119 107.5 70.3117 107.5L3.31741 107.641L3.27885 107.641L3.24034 107.64C2.28896 107.593 1.5 108.348 1.5 109.288V156.484C1.5 159.154 2.54606 161.728 4.41651 163.653L29.3466 189.303L29.3474 189.304C29.7533 189.722 30.4369 189.415 30.4324 188.874L30.4324 188.871L30.2746 162.587C30.2272 154.912 36.6328 148.771 44.3149 149.089L119.558 152.168L119.559 152.168C120.372 152.202 120.786 151.254 120.262 150.685L84.9332 113.728Z" stroke="#895BF7" stroke-opacity="0.18" stroke-width="3"/>
<path d="M284.644 11.1883L284.644 11.1881C278.755 4.9869 270.58 1.48503 262.043 1.50005C262.043 1.50005 262.043 1.50005 262.043 1.50005L161.002 1.71459L160.963 1.71467L160.924 1.71275C159.065 1.62049 157.5 3.10823 157.5 4.99019V76.6161C157.5 80.8753 159.158 84.9754 162.117 88.0414C162.117 88.0416 162.117 88.0417 162.117 88.0418L199.717 126.969L199.718 126.97C200.79 128.082 202.673 127.315 202.66 125.767L202.66 125.764L202.422 85.8746C202.422 85.8745 202.422 85.8744 202.422 85.8743C202.354 74.6824 211.64 65.7053 222.804 66.1702L336.286 70.8424L336.287 70.8425C338.168 70.9212 339.214 68.6721 337.931 67.2806C337.929 67.2787 337.927 67.2768 337.926 67.2749L284.644 11.1883Z" stroke="#895BF7" stroke-opacity="0.18" stroke-width="3"/>
</svg>
