<svg width="390" height="319" viewBox="0 0 390 319" fill="none" xmlns="http://www.w3.org/2000/svg"><path d="M314.889 159.737L314.889 159.737C306.753 151.266 295.457 146.479 283.655 146.5C283.655 146.5 283.655 146.5 283.655 146.5L145.822 146.789L145.783 146.79L145.745 146.788C142.878 146.647 140.5 148.912 140.5 151.731V248.343C140.5 254.218 142.812 259.877 146.946 264.111C146.946 264.111 146.946 264.111 146.946 264.111L198.237 316.618L198.238 316.619C200.067 318.495 203.218 317.162 203.197 314.635L203.197 314.632L202.872 260.828C202.78 246.013 215.206 234.162 230.107 234.776L384.91 241.078L384.911 241.078C388.003 241.206 389.63 237.59 387.582 235.399C387.58 235.397 387.578 235.395 387.576 235.393L314.889 159.737Z" stroke="#895BF7" stroke-opacity="0.18" stroke-width="3"></path><path d="M193.772 55.0793L286.901 58.8823M193.772 55.0793C185.314 54.7301 178.275 61.4759 178.328 69.8904M193.772 55.0793L193.833 53.5806C184.53 53.1968 176.77 60.619 176.828 69.8997M193.772 55.0793L193.834 53.5806L286.963 57.3836L286.964 57.3836C288.291 57.4387 288.974 55.8905 288.109 54.9582M286.901 58.8823L173.991 104.195C175.645 105.896 178.542 104.719 178.523 102.358L178.328 69.8904M286.901 58.8823C289.551 58.9923 291.003 55.8554 289.2 53.928M286.901 58.8823L289.2 53.928M178.328 69.8904L176.828 69.8995V69.8997M178.328 69.8904L176.828 69.8997M176.828 69.8997L177.023 102.368L177.023 102.371C177.031 103.355 175.794 103.898 175.067 103.15L175.066 103.149L144.21 71.4637M288.109 54.9582L244.381 9.30337L244.381 9.30319C239.6 4.31003 232.961 1.48796 226.025 1.50004L226.022 4.18243e-05L226.025 1.50004L143.105 1.67467L143.067 1.67475L143.028 1.67286C141.645 1.60475 140.5 2.70059 140.5 4.06178V62.362C140.5 65.7526 141.83 69.0192 144.21 71.4637M288.109 54.9582C288.108 54.9564 " stroke="#895BF7" stroke-opacity="0.18" stroke-width="3"></path><path d="M80.7147 101.268L80.7145 101.268C77.1105 97.5811 72.0983 95.4911 66.8544 95.5C66.8542 95.5 66.854 95.5 66.8538 95.5L3.15434 95.6314L3.11665 95.6315L3.079 95.6297C2.18102 95.5864 1.5 96.2765 1.5 97.056V140.92C1.5 143.364 2.47875 145.725 4.23993 147.497C4.24004 147.498 4.24014 147.498 4.24025 147.498L27.9442 171.337L27.9451 171.338C28.1099 171.504 28.3294 171.543 28.5494 171.456C28.7669 171.369 28.8636 171.213 28.862 171.025L28.862 171.022L28.7119 146.594C28.6662 139.366 34.8262 133.646 42.1371 133.942L113.68 136.803L113.681 136.803C114.056 136.818 114.309 136.627 114.43 136.371C114.548 136.122 114.526 135.85 114.305 135.615L80.7147 101.268Z" stroke="#895BF7" stroke-opacity="0.18" stroke-width="3"></path></svg>