<svg xmlns="http://www.w3.org/2000/svg" width="515" height="316" viewBox="0 0 515 316" fill="none"><path opacity="0.2" d="M567.031 170.839C577.154 279.149 908.764 326.465 930.845 562.061C946.221 726.15 850.634 744.486 801.217 742.392M535.51 169.514C545.633 277.824 877.243 325.14 899.325 560.736C914.701 724.867 819.113 743.161 769.696 741.067M503.989 168.189C514.112 276.499 845.722 323.815 867.804 559.411C883.18 723.542 787.592 741.836 738.175 739.742M472.469 166.864C482.634 275.174 814.201 322.49 836.283 558.086C851.659 722.175 756.071 740.511 706.654 738.417M440.948 165.539C451.113 273.849 782.68 321.165 804.762 556.761C820.138 720.85 724.55 739.186 675.133 737.092M409.427 164.214C419.592 272.524 751.159 319.84 773.241 555.436C788.617 719.525 693.029 737.861 643.612 735.767M377.906 162.889C388.028 271.199 719.638 318.515 741.72 554.111C757.096 718.242 661.508 736.536 612.092 734.442M346.385 161.564C356.508 269.874 688.118 317.19 710.199 552.786C725.575 716.917 629.988 735.211 580.571 733.117M314.864 160.239C324.987 268.549 656.597 315.865 678.678 551.461C694.054 715.549 598.467 733.886 549.05 731.792M283.343 158.914C293.466 267.224 625.076 314.54 647.157 550.136C662.533 714.224 566.946 732.561 517.529 730.467M251.822 157.589C261.988 265.899 593.555 313.215 615.637 548.811C631.013 712.899 535.425 731.236 486.008 729.142M454.487 727.817C503.904 729.911 599.492 711.617 584.116 547.486C562.034 311.89 230.424 264.574 220.301 156.264C210.179 47.9548 535.51 28.4642 513.429 -207.132C498.053 -371.221 398.279 -397.849 348.862 -399.944M422.966 726.492C472.383 728.586 567.971 710.249 552.595 546.161C530.513 310.565 198.946 263.249 188.781 154.939C178.615 46.6297 503.989 27.1391 481.908 -208.457C466.532 -372.546 366.758 -399.174 317.341 -401.269M391.445 725.167C440.862 727.261 536.45 708.924 521.074 544.836C498.992 309.239 167.382 261.924 157.26 153.614C147.094 45.3047 472.469 25.8141 450.387 -209.782C435.011 -373.871 335.237 -400.499 285.82 -402.594M359.924 723.842C409.341 725.936 504.929 707.599 489.553 543.511C467.471 307.914 135.861 260.599 125.739 152.289C115.574 43.9797 440.948 24.4891 418.866 -211.107C403.49 -375.196 303.716 -401.824 254.3 -403.919M94.218 150.964C104.383 259.274 435.95 306.589 458.032 542.186C473.408 706.317 377.82 724.611 328.404 722.516M566.903 170.968C556.738 62.6581 882.112 43.1676 860.03 -192.429C844.654 -356.517 744.881 -383.146 695.464 -385.24M535.382 169.6C525.217 61.2904 850.591 41.7998 828.509 -193.797C813.133 -357.885 713.36 -384.514 663.943 -386.608M503.861 168.275C493.696 59.9654 819.07 40.4748 796.988 -195.122C781.612 -359.21 681.839 -385.839 632.422 -387.933M472.34 166.95C462.218 58.6404 787.549 39.1498 765.51 -196.447C750.134 -360.578 650.361 -387.164 600.944 -389.258M440.862 165.625C430.74 57.3153 756.071 37.8248 734.032 -197.772C718.656 -361.86 618.883 -388.489 569.466 -390.583M409.384 164.3C399.261 55.9903 724.593 36.4997 702.511 -199.097C687.135 -363.185 587.362 -389.814 537.945 -391.908M377.863 162.932C367.698 54.6226 693.072 35.132 670.99 -200.465C655.614 -364.553 555.841 -391.181 506.424 -393.276M346.342 161.607C336.177 53.2976 661.551 33.807 639.469 -201.79C624.093 -365.878 524.32 -392.506 474.903 -394.601M314.821 160.282C304.656 51.9725 630.03 32.482 607.949 -203.115C592.573 -367.246 492.799 -393.832 443.382 -395.926M283.3 158.957C273.135 50.6475 598.509 31.1569 576.428 -204.44C561.052 -368.528 461.278 -395.157 411.861 -397.251M251.78 157.589C241.657 49.2798 566.988 29.7892 544.95 -205.807C529.573 -369.896 429.8 -396.524 380.383 -398.619M94.218 150.921C84.0954 42.6119 409.427 23.1214 387.345 -212.475C371.969 -376.564 272.196 -403.192 222.779 -405.286M56.3331 150.836C66.4984 259.145 398.066 306.461 420.147 542.058C435.523 706.189 339.936 724.483 290.519 722.388M24.8122 149.511C34.9775 257.82 366.545 305.136 388.626 540.733C404.002 704.821 308.415 723.158 258.998 721.063M-6.70866 148.186C3.45662 256.495 335.024 303.811 357.105 539.408C372.482 703.496 276.894 721.833 227.477 719.738M-38.2296 146.861C-28.107 255.17 303.503 302.486 325.585 538.083C340.961 702.171 245.373 720.508 195.956 718.413M-69.7504 145.536C-59.6279 253.845 271.982 301.161 294.064 536.758C309.44 700.846 213.852 719.183 164.435 717.088M-101.271 144.211C-91.1487 252.52 240.461 299.836 262.543 535.433C277.919 699.564 182.331 717.858 132.914 715.763M-132.792 142.886C-122.627 251.195 208.94 298.511 231.022 534.108C246.398 698.196 150.81 716.533 101.393 714.438M-164.313 141.561C-154.148 249.87 177.419 297.186 199.501 532.783C214.877 696.871 119.289 715.208 69.8726 713.113M-195.834 140.236C-185.711 248.545 145.898 295.861 167.98 531.458C183.356 695.546 87.7686 713.883 38.3517 711.788M-227.355 138.911C-217.232 247.22 114.378 294.536 136.459 530.133C151.835 694.264 56.2477 712.558 6.83079 710.463M-258.876 137.586C-248.753 245.895 82.8568 293.211 104.938 528.808C120.315 692.939 24.7268 711.233 -24.6901 709.138M-55.9974 707.642C-6.58053 709.737 89.0072 691.4 73.6311 527.312C51.5494 291.715 -280.061 244.399 -290.183 136.09C-300.348 27.7803 25.0258 8.28971 2.94406 -227.307C-12.432 -391.438 -112.205 -418.024 -161.622 -420.118M-87.5183 706.274C-38.1014 708.369 57.4863 690.032 42.1103 525.944C20.0286 290.347 -311.581 243.031 -321.704 134.722C-331.869 26.4125 -6.49511 6.92195 -28.5768 -228.675C-43.9101 -392.763 -143.726 -419.349 -193.143 -421.443M-119.039 704.949C-69.6223 707.044 25.9654 688.707 10.5894 524.619C-11.4923 289.022 -343.06 241.706 -353.225 133.397C-363.347 25.0875 -38.016 5.59693 -60.055 -230C-75.431 -394.088 -175.247 -420.717 -224.621 -422.811M-150.56 703.624C-101.143 705.719 -5.55546 687.425 -20.9315 523.294C-43.0132 287.697 -374.58 240.381 -384.746 132.072C-394.868 23.7625 -69.5369 4.27191 -91.6186 -231.325C-106.952 -395.413 -206.725 -422.042 -256.142 -424.136M-182.081 702.299C-132.664 704.394 -37.0763 686.057 -52.4524 521.969C-74.5341 286.372 -406.101 239.056 -416.267 130.747C-426.432 22.4375 -101.058 2.9469 -123.139 -232.65C-138.473 -396.781 -238.246 -423.367 -287.663 -425.461M56.4185 150.75C46.296 42.4409 371.627 22.9504 349.588 -212.646C334.212 -376.735 234.439 -403.363 185.022 -405.457M24.9403 149.425C14.8178 41.1159 340.149 21.6254 318.067 -213.971C302.691 -378.06 202.918 -404.688 153.501 -406.782M-6.58053 148.1C-16.7031 39.7909 308.628 20.3003 286.547 -215.296C271.171 -379.427 171.397 -406.013 121.98 -408.107M-38.1014 146.775C-48.2667 38.4659 277.107 18.9753 255.026 -216.621C239.65 -380.71 139.876 -407.338 90.4594 -409.433M-69.6223 145.408C-79.7876 37.0981 245.586 17.6076 223.505 -217.989C208.129 -382.077 108.355 -408.706 58.9385 -410.8M-101.143 144.083C-111.308 35.7731 214.066 16.2826 191.984 -219.314C176.651 -383.402 76.8772 -410.031 27.4603 -412.125M-132.621 142.758C-142.744 34.4481 182.587 14.9575 160.506 -220.639C145.13 -384.77 45.3563 -411.356 -4.06058 -413.45M-164.142 141.39C-174.265 33.0803 151.067 13.5898 129.028 -222.007C113.652 -386.095 13.8354 -412.681 -35.5815 -414.775M-195.663 140.108C-205.786 31.7981 119.546 12.3075 97.464 -223.289C82.1307 -387.42 -17.6855 -414.049 -67.0596 -416.1M-227.141 138.74C-237.307 30.4303 88.0675 10.9397 65.9858 -224.657C50.6098 -388.745 -49.1636 -415.374 -98.5805 -417.468M-258.662 137.415C-268.827 29.1053 56.5467 9.61472 34.465 -225.982C19.0889 -390.113 -80.6845 -416.699 -130.101 -418.793" stroke="#F0F0ED" stroke-miterlimit="10"></path></svg>