<svg width="387" height="88" viewBox="0 0 387 88" fill="none" xmlns="http://www.w3.org/2000/svg">
<g clip-path="url(#clip0_6839_45905)">
<rect x="1" y="1" width="385" height="86" rx="9" stroke="#F0B342" stroke-width="2"/>
<rect x="11" y="10" width="365" height="68" rx="10" fill="white"/>
<path d="M214.452 54.62L216.867 49.307H216.237L212.184 39.584H215.103L218.022 46.913L221.067 39.584H223.923L217.308 54.62H214.452Z" fill="#3C1121"/>
<path d="M207.715 49.9999V34.8799H210.403V49.9999H207.715Z" fill="#3C1121"/>
<path d="M194.941 49.9999V34.8799H197.629V41.1799C197.979 40.6059 198.448 40.1579 199.036 39.8359C199.638 39.4999 200.324 39.3319 201.094 39.3319C202.382 39.3319 203.376 39.7379 204.076 40.5499C204.79 41.3619 205.147 42.5519 205.147 44.1199V49.9999H202.48V44.3719C202.48 43.4759 202.298 42.7899 201.934 42.3139C201.584 41.8379 201.024 41.5999 200.254 41.5999C199.498 41.5999 198.868 41.8659 198.364 42.3979C197.874 42.9299 197.629 43.6719 197.629 44.6239V49.9999H194.941Z" fill="#3C1121"/>
<path d="M190.741 50C189.649 50 188.774 49.734 188.116 49.202C187.458 48.67 187.129 47.725 187.129 46.367V41.831H185.344V39.584H187.129L187.444 36.791H189.817V39.584H192.631V41.831H189.817V46.388C189.817 46.892 189.922 47.242 190.132 47.438C190.356 47.62 190.734 47.711 191.266 47.711H192.568V50H190.741Z" fill="#3C1121"/>
<path d="M173.324 50V39.584H175.697L175.907 41.348C176.229 40.732 176.691 40.242 177.293 39.878C177.909 39.514 178.63 39.332 179.456 39.332C180.744 39.332 181.745 39.738 182.459 40.55C183.173 41.362 183.53 42.552 183.53 44.12V50H180.842V44.372C180.842 43.476 180.66 42.79 180.296 42.314C179.932 41.838 179.365 41.6 178.595 41.6C177.839 41.6 177.216 41.866 176.726 42.398C176.25 42.93 176.012 43.672 176.012 44.624V50H173.324Z" fill="#3C1121"/>
<path d="M165.588 50.252C164.58 50.252 163.67 50.021 162.858 49.559C162.06 49.097 161.423 48.46 160.947 47.648C160.485 46.822 160.254 45.87 160.254 44.792C160.254 43.714 160.492 42.769 160.968 41.957C161.444 41.131 162.081 40.487 162.879 40.025C163.691 39.563 164.601 39.332 165.609 39.332C166.603 39.332 167.499 39.563 168.297 40.025C169.109 40.487 169.746 41.131 170.208 41.957C170.684 42.769 170.922 43.714 170.922 44.792C170.922 45.87 170.684 46.822 170.208 47.648C169.746 48.46 169.109 49.097 168.297 49.559C167.485 50.021 166.582 50.252 165.588 50.252ZM165.588 47.921C166.288 47.921 166.897 47.662 167.415 47.144C167.933 46.612 168.192 45.828 168.192 44.792C168.192 43.756 167.933 42.979 167.415 42.461C166.897 41.929 166.295 41.663 165.609 41.663C164.895 41.663 164.279 41.929 163.761 42.461C163.257 42.979 163.005 43.756 163.005 44.792C163.005 45.828 163.257 46.612 163.761 47.144C164.279 47.662 164.888 47.921 165.588 47.921Z" fill="#3C1121"/>
<path d="M142.113 49.9998V35.2998H145.305L149.988 44.6238L154.608 35.2998H157.8V49.9998H155.112V39.8568L151.017 47.8998H148.896L144.801 39.8568V49.9998H142.113Z" fill="#3C1121"/>
</g>
<defs>
<clipPath id="clip0_6839_45905">
<rect width="387" height="88" fill="white"/>
</clipPath>
</defs>
</svg>
