<svg width="387" height="88" viewBox="0 0 387 88" fill="none" xmlns="http://www.w3.org/2000/svg">
<g clip-path="url(#clip0_6839_45871)">
<mask id="path-1-inside-1_6839_45871" fill="white">
<path d="M0 10C0 4.47715 4.47715 0 10 0H377C382.523 0 387 4.47715 387 10V78C387 83.5228 382.523 88 377 88H10C4.47716 88 0 83.5228 0 78V10Z"/>
</mask>
<path d="M0 0H387H0ZM387 78C387 84.6274 381.627 90 375 90H10C3.37258 90 -2 84.6274 -2 78H2C2 82.4183 5.58172 86 10 86H377C382.523 86 387 82.4183 387 78ZM10 90C3.37258 90 -2 84.6274 -2 78V12C-2 5.37258 3.37258 0 10 0C5.58172 0 2 4.47715 2 10V78C2 82.4183 5.58172 86 10 86V90ZM387 0V88V0Z" fill="#92CECE" mask="url(#path-1-inside-1_6839_45871)"/>
<mask id="path-3-inside-2_6839_45871" fill="white">
<path d="M0 10C0 4.47715 4.47715 0 10 0H377C382.523 0 387 4.47715 387 10V78C387 83.5228 382.523 88 377 88H10C4.47716 88 0 83.5228 0 78V10Z"/>
</mask>
<path d="M0 10C0 3.37258 5.37258 -2 12 -2H377C383.627 -2 389 3.37258 389 10H385C385 5.58172 381.418 2 377 2H10C4.47715 2 0 5.58172 0 10ZM387 88H0H387ZM0 88V0V88ZM377 -2C383.627 -2 389 3.37258 389 10V76C389 82.6274 383.627 88 377 88C381.418 88 385 83.5228 385 78V10C385 5.58172 381.418 2 377 2V-2Z" fill="#F0B342" mask="url(#path-3-inside-2_6839_45871)"/>
<rect x="11" y="10" width="365" height="68" rx="10" fill="white"/>
<path d="M244.129 49.9999V34.8799H246.817V49.9999H244.129Z" fill="#3C1121"/>
<path d="M235.597 50.252C234.701 50.252 233.966 50.112 233.392 49.832C232.818 49.538 232.391 49.153 232.111 48.677C231.831 48.201 231.691 47.676 231.691 47.102C231.691 46.136 232.069 45.352 232.825 44.75C233.581 44.148 234.715 43.847 236.227 43.847H238.873V43.595C238.873 42.881 238.67 42.356 238.264 42.02C237.858 41.684 237.354 41.516 236.752 41.516C236.206 41.516 235.73 41.649 235.324 41.915C234.918 42.167 234.666 42.545 234.568 43.049H231.943C232.013 42.293 232.265 41.635 232.699 41.075C233.147 40.515 233.721 40.088 234.421 39.794C235.121 39.486 235.905 39.332 236.773 39.332C238.257 39.332 239.426 39.703 240.28 40.445C241.134 41.187 241.561 42.237 241.561 43.595V50H239.272L239.02 48.32C238.712 48.88 238.278 49.342 237.718 49.706C237.172 50.07 236.465 50.252 235.597 50.252ZM236.206 48.152C236.976 48.152 237.571 47.9 237.991 47.396C238.425 46.892 238.698 46.269 238.81 45.527H236.521C235.807 45.527 235.296 45.66 234.988 45.926C234.68 46.178 234.526 46.493 234.526 46.871C234.526 47.277 234.68 47.592 234.988 47.816C235.296 48.04 235.702 48.152 236.206 48.152Z" fill="#3C1121"/>
<path d="M223.136 50.252C221.834 50.252 220.826 49.846 220.112 49.034C219.412 48.222 219.062 47.032 219.062 45.464V39.584H221.729V45.212C221.729 46.108 221.911 46.794 222.275 47.27C222.639 47.746 223.213 47.984 223.997 47.984C224.739 47.984 225.348 47.718 225.824 47.186C226.314 46.654 226.559 45.912 226.559 44.96V39.584H229.247V50H226.874L226.664 48.236C226.342 48.852 225.873 49.342 225.257 49.706C224.655 50.07 223.948 50.252 223.136 50.252Z" fill="#3C1121"/>
<path d="M206.457 50V39.584H208.83L209.04 41.348C209.362 40.732 209.824 40.242 210.426 39.878C211.042 39.514 211.763 39.332 212.589 39.332C213.877 39.332 214.878 39.738 215.592 40.55C216.306 41.362 216.663 42.552 216.663 44.12V50H213.975V44.372C213.975 43.476 213.793 42.79 213.429 42.314C213.065 41.838 212.498 41.6 211.728 41.6C210.972 41.6 210.349 41.866 209.859 42.398C209.383 42.93 209.145 43.672 209.145 44.624V50H206.457Z" fill="#3C1121"/>
<path d="M193.68 50V39.584H196.053L196.263 41.348C196.585 40.732 197.047 40.242 197.649 39.878C198.265 39.514 198.986 39.332 199.812 39.332C201.1 39.332 202.101 39.738 202.815 40.55C203.529 41.362 203.886 42.552 203.886 44.12V50H201.198V44.372C201.198 43.476 201.016 42.79 200.652 42.314C200.288 41.838 199.721 41.6 198.951 41.6C198.195 41.6 197.572 41.866 197.082 42.398C196.606 42.93 196.368 43.672 196.368 44.624V50H193.68Z" fill="#3C1121"/>
<path d="M178.07 49.9998L183.446 35.2998H186.47L191.846 49.9998H188.99L187.814 46.5978H182.081L180.884 49.9998H178.07ZM182.816 44.4978H187.079L184.937 38.3868L182.816 44.4978Z" fill="#3C1121"/>
<path d="M168.285 45.0439V42.7969H177.084V45.0439H168.285Z" fill="#3C1121"/>
<path d="M164.368 37.9669C163.878 37.9669 163.471 37.8199 163.149 37.5259C162.841 37.2319 162.688 36.8609 162.688 36.4129C162.688 35.9649 162.841 35.6009 163.149 35.3209C163.471 35.0269 163.878 34.8799 164.368 34.8799C164.858 34.8799 165.256 35.0269 165.564 35.3209C165.886 35.6009 166.048 35.9649 166.048 36.4129C166.048 36.8609 165.886 37.2319 165.564 37.5259C165.256 37.8199 164.858 37.9669 164.368 37.9669ZM163.023 49.9999V39.5839H165.711V49.9999H163.023Z" fill="#3C1121"/>
<path d="M143.25 50V39.584H145.623L145.854 40.991C146.19 40.487 146.631 40.088 147.177 39.794C147.737 39.486 148.381 39.332 149.109 39.332C150.719 39.332 151.86 39.955 152.532 41.201C152.91 40.627 153.414 40.172 154.044 39.836C154.688 39.5 155.388 39.332 156.144 39.332C157.502 39.332 158.545 39.738 159.273 40.55C160.001 41.362 160.365 42.552 160.365 44.12V50H157.677V44.372C157.677 43.476 157.502 42.79 157.152 42.314C156.816 41.838 156.291 41.6 155.577 41.6C154.849 41.6 154.261 41.866 153.813 42.398C153.379 42.93 153.162 43.672 153.162 44.624V50H150.474V44.372C150.474 43.476 150.299 42.79 149.949 42.314C149.599 41.838 149.06 41.6 148.332 41.6C147.618 41.6 147.037 41.866 146.589 42.398C146.155 42.93 145.938 43.672 145.938 44.624V50H143.25Z" fill="#3C1121"/>
<path d="M135.76 50.252C134.71 50.252 133.779 50.028 132.967 49.58C132.155 49.132 131.518 48.502 131.056 47.69C130.594 46.878 130.363 45.94 130.363 44.876C130.363 43.798 130.587 42.839 131.035 41.999C131.497 41.159 132.127 40.508 132.925 40.046C133.737 39.57 134.689 39.332 135.781 39.332C136.803 39.332 137.706 39.556 138.49 40.004C139.274 40.452 139.883 41.068 140.317 41.852C140.765 42.622 140.989 43.483 140.989 44.435C140.989 44.589 140.982 44.75 140.968 44.918C140.968 45.086 140.961 45.261 140.947 45.443H133.03C133.086 46.255 133.366 46.892 133.87 47.354C134.388 47.816 135.011 48.047 135.739 48.047C136.285 48.047 136.74 47.928 137.104 47.69C137.482 47.438 137.762 47.116 137.944 46.724H140.674C140.478 47.382 140.149 47.984 139.687 48.53C139.239 49.062 138.679 49.482 138.007 49.79C137.349 50.098 136.6 50.252 135.76 50.252ZM135.781 41.516C135.123 41.516 134.542 41.705 134.038 42.083C133.534 42.447 133.212 43.007 133.072 43.763H138.259C138.217 43.077 137.965 42.531 137.503 42.125C137.041 41.719 136.467 41.516 135.781 41.516Z" fill="#3C1121"/>
<path d="M123.251 50.2519C122.173 50.2519 121.221 50.0699 120.395 49.7059C119.569 49.3279 118.918 48.7959 118.442 48.1099C117.966 47.4099 117.721 46.5629 117.707 45.5689H120.542C120.57 46.2549 120.815 46.8359 121.277 47.3119C121.753 47.7739 122.404 48.0049 123.23 48.0049C123.944 48.0049 124.511 47.8369 124.931 47.5009C125.351 47.1509 125.561 46.6889 125.561 46.1149C125.561 45.5129 125.372 45.0439 124.994 44.7079C124.63 44.3719 124.14 44.0989 123.524 43.8889C122.908 43.6789 122.25 43.4549 121.55 43.2169C120.416 42.8249 119.548 42.3209 118.946 41.7049C118.358 41.0889 118.064 40.2699 118.064 39.2479C118.05 38.3799 118.253 37.6379 118.673 37.0219C119.107 36.3919 119.695 35.9089 120.437 35.5729C121.179 35.2229 122.033 35.0479 122.999 35.0479C123.979 35.0479 124.84 35.2229 125.582 35.5729C126.338 35.9229 126.926 36.4129 127.346 37.0429C127.78 37.6729 128.011 38.4219 128.039 39.2899H125.162C125.148 38.7719 124.945 38.3169 124.553 37.9249C124.175 37.5189 123.643 37.3159 122.957 37.3159C122.369 37.3019 121.872 37.4489 121.466 37.7569C121.074 38.0509 120.878 38.4849 120.878 39.0589C120.878 39.5489 121.032 39.9408 121.34 40.2348C121.648 40.5149 122.068 40.7529 122.6 40.9489C123.132 41.1449 123.741 41.3548 124.427 41.5788C125.155 41.8308 125.82 42.1248 126.422 42.4608C127.024 42.7969 127.507 43.2449 127.871 43.8049C128.235 44.3509 128.417 45.0579 128.417 45.9259C128.417 46.6959 128.221 47.4099 127.829 48.0679C127.437 48.7259 126.856 49.2579 126.086 49.6639C125.316 50.0559 124.371 50.2519 123.251 50.2519Z" fill="#3C1121"/>
</g>
<defs>
<clipPath id="clip0_6839_45871">
<rect width="387" height="88" fill="white"/>
</clipPath>
</defs>
</svg>
