<svg width="387" height="88" viewBox="0 0 387 88" fill="none" xmlns="http://www.w3.org/2000/svg">
<g clip-path="url(#clip0_6839_45889)">
<rect x="1" y="1" width="385" height="86" rx="9" stroke="#92CECE" stroke-width="2"/>
<rect x="11" y="10" width="365" height="68" rx="10" fill="white"/>
<path d="M213.734 49.9999V34.8799H216.422V49.9999H213.734Z" fill="#3C1121"/>
<path d="M205.207 50.252C204.311 50.252 203.576 50.112 203.002 49.832C202.428 49.538 202.001 49.153 201.721 48.677C201.441 48.201 201.301 47.676 201.301 47.102C201.301 46.136 201.679 45.352 202.435 44.75C203.191 44.148 204.325 43.847 205.837 43.847H208.483V43.595C208.483 42.881 208.28 42.356 207.874 42.02C207.468 41.684 206.964 41.516 206.362 41.516C205.816 41.516 205.34 41.649 204.934 41.915C204.528 42.167 204.276 42.545 204.178 43.049H201.553C201.623 42.293 201.875 41.635 202.309 41.075C202.757 40.515 203.331 40.088 204.031 39.794C204.731 39.486 205.515 39.332 206.383 39.332C207.867 39.332 209.036 39.703 209.89 40.445C210.744 41.187 211.171 42.237 211.171 43.595V50H208.882L208.63 48.32C208.322 48.88 207.888 49.342 207.328 49.706C206.782 50.07 206.075 50.252 205.207 50.252ZM205.816 48.152C206.586 48.152 207.181 47.9 207.601 47.396C208.035 46.892 208.308 46.269 208.42 45.527H206.131C205.417 45.527 204.906 45.66 204.598 45.926C204.29 46.178 204.136 46.493 204.136 46.871C204.136 47.277 204.29 47.592 204.598 47.816C204.906 48.04 205.312 48.152 205.816 48.152Z" fill="#3C1121"/>
<path d="M192.746 50.252C191.444 50.252 190.436 49.846 189.722 49.034C189.022 48.222 188.672 47.032 188.672 45.464V39.584H191.339V45.212C191.339 46.108 191.521 46.794 191.885 47.27C192.249 47.746 192.823 47.984 193.607 47.984C194.349 47.984 194.958 47.718 195.434 47.186C195.924 46.654 196.169 45.912 196.169 44.96V39.584H198.857V50H196.484L196.274 48.236C195.952 48.852 195.483 49.342 194.867 49.706C194.265 50.07 193.558 50.252 192.746 50.252Z" fill="#3C1121"/>
<path d="M176.062 50V39.584H178.436L178.645 41.348C178.967 40.732 179.429 40.242 180.031 39.878C180.647 39.514 181.368 39.332 182.194 39.332C183.482 39.332 184.483 39.738 185.197 40.55C185.911 41.362 186.268 42.552 186.268 44.12V50H183.58V44.372C183.58 43.476 183.399 42.79 183.035 42.314C182.671 41.838 182.103 41.6 181.333 41.6C180.577 41.6 179.954 41.866 179.464 42.398C178.988 42.93 178.75 43.672 178.75 44.624V50H176.062Z" fill="#3C1121"/>
<path d="M163.285 50V39.584H165.658L165.868 41.348C166.19 40.732 166.652 40.242 167.254 39.878C167.87 39.514 168.591 39.332 169.417 39.332C170.705 39.332 171.706 39.738 172.42 40.55C173.134 41.362 173.491 42.552 173.491 44.12V50H170.803V44.372C170.803 43.476 170.621 42.79 170.257 42.314C169.893 41.838 169.326 41.6 168.556 41.6C167.8 41.6 167.177 41.866 166.687 42.398C166.211 42.93 165.973 43.672 165.973 44.624V50H163.285Z" fill="#3C1121"/>
<path d="M147.68 49.9998L153.056 35.2998H156.08L161.456 49.9998H158.6L157.424 46.5978H151.691L150.494 49.9998H147.68ZM152.426 44.4978H156.689L154.547 38.3868L152.426 44.4978Z" fill="#3C1121"/>
</g>
<defs>
<clipPath id="clip0_6839_45889">
<rect width="387" height="88" fill="white"/>
</clipPath>
</defs>
</svg>
