<svg width="387" height="88" viewBox="0 0 387 88" fill="none" xmlns="http://www.w3.org/2000/svg">
<g clip-path="url(#clip0_6839_45901)">
<rect x="1" y="1" width="385" height="86" rx="9" stroke="#F0564C" stroke-width="2"/>
<rect x="11" y="10" width="365" height="68" rx="10" fill="white"/>
<path d="M236.375 46.892C235.871 46.892 235.402 46.836 234.968 46.724L234.191 47.501C234.429 47.627 234.751 47.732 235.157 47.816C235.563 47.9 236.221 47.984 237.131 48.068C238.517 48.194 239.525 48.523 240.155 49.055C240.785 49.587 241.1 50.322 241.1 51.26C241.1 51.876 240.932 52.457 240.596 53.003C240.26 53.563 239.742 54.011 239.042 54.347C238.342 54.697 237.446 54.872 236.354 54.872C234.87 54.872 233.673 54.592 232.763 54.032C231.853 53.486 231.398 52.66 231.398 51.554C231.398 50.616 231.853 49.804 232.763 49.118C232.483 48.992 232.238 48.859 232.028 48.719C231.832 48.579 231.657 48.432 231.503 48.278V47.795L233.33 45.863C232.518 45.149 232.112 44.232 232.112 43.112C232.112 42.412 232.28 41.775 232.616 41.201C232.966 40.627 233.456 40.172 234.086 39.836C234.716 39.5 235.479 39.332 236.375 39.332C236.963 39.332 237.509 39.416 238.013 39.584H241.961V41.222L240.176 41.348C240.456 41.88 240.596 42.468 240.596 43.112C240.596 43.812 240.428 44.449 240.092 45.023C239.756 45.597 239.266 46.052 238.622 46.388C237.992 46.724 237.243 46.892 236.375 46.892ZM236.375 44.834C236.921 44.834 237.369 44.687 237.719 44.393C238.083 44.099 238.265 43.679 238.265 43.133C238.265 42.587 238.083 42.167 237.719 41.873C237.369 41.579 236.921 41.432 236.375 41.432C235.801 41.432 235.339 41.579 234.989 41.873C234.639 42.167 234.464 42.587 234.464 43.133C234.464 43.679 234.639 44.099 234.989 44.393C235.339 44.687 235.801 44.834 236.375 44.834ZM233.855 51.281C233.855 51.799 234.093 52.184 234.569 52.436C235.059 52.702 235.654 52.835 236.354 52.835C237.026 52.835 237.572 52.695 237.992 52.415C238.412 52.149 238.622 51.785 238.622 51.323C238.622 50.945 238.482 50.63 238.202 50.378C237.936 50.126 237.397 49.972 236.585 49.916C236.011 49.874 235.479 49.811 234.989 49.727C234.583 49.951 234.289 50.196 234.107 50.462C233.939 50.728 233.855 51.001 233.855 51.281Z" fill="#3C1121"/>
<path d="M219.188 50V39.584H221.561L221.77 41.348C222.092 40.732 222.554 40.242 223.156 39.878C223.772 39.514 224.493 39.332 225.319 39.332C226.607 39.332 227.608 39.738 228.322 40.55C229.036 41.362 229.393 42.552 229.393 44.12V50H226.705V44.372C226.705 43.476 226.524 42.79 226.16 42.314C225.796 41.838 225.228 41.6 224.458 41.6C223.702 41.6 223.079 41.866 222.589 42.398C222.113 42.93 221.875 43.672 221.875 44.624V50H219.188Z" fill="#3C1121"/>
<path d="M215.039 37.9669C214.549 37.9669 214.143 37.8199 213.821 37.5259C213.513 37.2319 213.359 36.8609 213.359 36.4129C213.359 35.9649 213.513 35.6009 213.821 35.3209C214.143 35.0269 214.549 34.8799 215.039 34.8799C215.529 34.8799 215.928 35.0269 216.236 35.3209C216.558 35.6009 216.719 35.9649 216.719 36.4129C216.719 36.8609 216.558 37.2319 216.236 37.5259C215.928 37.8199 215.529 37.9669 215.039 37.9669ZM213.695 49.9999V39.5839H216.383V49.9999H213.695Z" fill="#3C1121"/>
<path d="M204.679 50.2519C203.699 50.2519 202.824 50.0139 202.054 49.5379C201.284 49.0619 200.675 48.4109 200.227 47.5849C199.779 46.7589 199.555 45.8209 199.555 44.7709C199.555 43.7209 199.779 42.7899 200.227 41.9779C200.675 41.1519 201.284 40.5079 202.054 40.0459C202.824 39.5699 203.699 39.3319 204.679 39.3319C205.463 39.3319 206.149 39.4789 206.737 39.7729C207.325 40.0669 207.801 40.4799 208.165 41.0119V34.8799H210.853V49.9999H208.459L208.165 48.5089C207.829 48.9709 207.381 49.3769 206.821 49.7269C206.275 50.0769 205.561 50.2519 204.679 50.2519ZM205.246 47.8999C206.114 47.8999 206.821 47.6129 207.367 47.0389C207.927 46.4509 208.207 45.7019 208.207 44.7919C208.207 43.8819 207.927 43.1399 207.367 42.5659C206.821 41.9779 206.114 41.6839 205.246 41.6839C204.392 41.6839 203.685 41.9709 203.125 42.5449C202.565 43.1189 202.285 43.8609 202.285 44.7709C202.285 45.6809 202.565 46.4299 203.125 47.0179C203.685 47.6059 204.392 47.8999 205.246 47.8999Z" fill="#3C1121"/>
<path d="M191.75 50V39.584H194.144L194.396 41.537C194.774 40.865 195.285 40.333 195.929 39.941C196.587 39.535 197.357 39.332 198.239 39.332V42.167H197.483C196.895 42.167 196.37 42.258 195.908 42.44C195.446 42.622 195.082 42.937 194.816 43.385C194.564 43.833 194.438 44.456 194.438 45.254V50H191.75Z" fill="#3C1121"/>
<path d="M183.218 50.252C182.322 50.252 181.588 50.112 181.014 49.832C180.44 49.538 180.012 49.153 179.732 48.677C179.452 48.201 179.312 47.676 179.312 47.102C179.312 46.136 179.691 45.352 180.447 44.75C181.203 44.148 182.336 43.847 183.848 43.847H186.494V43.595C186.494 42.881 186.291 42.356 185.885 42.02C185.479 41.684 184.976 41.516 184.374 41.516C183.828 41.516 183.351 41.649 182.945 41.915C182.539 42.167 182.287 42.545 182.189 43.049H179.564C179.634 42.293 179.886 41.635 180.32 41.075C180.768 40.515 181.342 40.088 182.042 39.794C182.742 39.486 183.527 39.332 184.395 39.332C185.879 39.332 187.048 39.703 187.902 40.445C188.756 41.187 189.182 42.237 189.182 43.595V50H186.893L186.641 48.32C186.333 48.88 185.899 49.342 185.339 49.706C184.793 50.07 184.086 50.252 183.218 50.252ZM183.827 48.152C184.597 48.152 185.193 47.9 185.613 47.396C186.047 46.892 186.32 46.269 186.432 45.527H184.143C183.429 45.527 182.917 45.66 182.609 45.926C182.301 46.178 182.147 46.493 182.147 46.871C182.147 47.277 182.301 47.592 182.609 47.816C182.917 48.04 183.323 48.152 183.827 48.152Z" fill="#3C1121"/>
<path d="M171.893 50.252C170.885 50.252 169.975 50.021 169.163 49.559C168.365 49.097 167.728 48.46 167.252 47.648C166.79 46.822 166.559 45.87 166.559 44.792C166.559 43.714 166.797 42.769 167.273 41.957C167.749 41.131 168.386 40.487 169.184 40.025C169.996 39.563 170.906 39.332 171.914 39.332C172.908 39.332 173.804 39.563 174.602 40.025C175.414 40.487 176.051 41.131 176.513 41.957C176.989 42.769 177.227 43.714 177.227 44.792C177.227 45.87 176.989 46.822 176.513 47.648C176.051 48.46 175.414 49.097 174.602 49.559C173.79 50.021 172.887 50.252 171.893 50.252ZM171.893 47.921C172.593 47.921 173.202 47.662 173.72 47.144C174.238 46.612 174.497 45.828 174.497 44.792C174.497 43.756 174.238 42.979 173.72 42.461C173.202 41.929 172.6 41.663 171.914 41.663C171.2 41.663 170.584 41.929 170.066 42.461C169.562 42.979 169.31 43.756 169.31 44.792C169.31 45.828 169.562 46.612 170.066 47.144C170.584 47.662 171.193 47.921 171.893 47.921Z" fill="#3C1121"/>
<path d="M159.369 50.2519C158.585 50.2519 157.899 50.1049 157.311 49.8109C156.723 49.5169 156.247 49.1039 155.883 48.5719L155.589 49.9999H153.195V34.8799H155.883V41.0749C156.219 40.6129 156.66 40.2069 157.206 39.8569C157.766 39.5069 158.487 39.3319 159.369 39.3319C160.349 39.3319 161.224 39.5699 161.994 40.0459C162.764 40.5219 163.373 41.1729 163.821 41.9989C164.269 42.8249 164.493 43.7629 164.493 44.8129C164.493 45.8629 164.269 46.8009 163.821 47.6269C163.373 48.4389 162.764 49.0829 161.994 49.5589C161.224 50.0209 160.349 50.2519 159.369 50.2519ZM158.802 47.8999C159.656 47.8999 160.363 47.6129 160.923 47.0389C161.483 46.4649 161.763 45.7229 161.763 44.8129C161.763 43.9029 161.483 43.1539 160.923 42.5659C160.363 41.9779 159.656 41.6839 158.802 41.6839C157.934 41.6839 157.22 41.9779 156.66 42.5659C156.114 43.1399 155.841 43.8819 155.841 44.7919C155.841 45.7019 156.114 46.4509 156.66 47.0389C157.22 47.6129 157.934 47.8999 158.802 47.8999Z" fill="#3C1121"/>
<path d="M140.418 50V39.584H142.791L143.001 41.348C143.323 40.732 143.785 40.242 144.387 39.878C145.003 39.514 145.724 39.332 146.55 39.332C147.838 39.332 148.839 39.738 149.553 40.55C150.267 41.362 150.624 42.552 150.624 44.12V50H147.936V44.372C147.936 43.476 147.754 42.79 147.39 42.314C147.026 41.838 146.459 41.6 145.689 41.6C144.933 41.6 144.31 41.866 143.82 42.398C143.344 42.93 143.106 43.672 143.106 44.624V50H140.418Z" fill="#3C1121"/>
<path d="M130.758 50.2519C129.288 50.2519 128 49.9299 126.894 49.2859C125.802 48.6419 124.941 47.7529 124.311 46.6189C123.695 45.4709 123.387 44.1479 123.387 42.6499C123.387 41.1519 123.695 39.8359 124.311 38.7019C124.941 37.5539 125.802 36.6579 126.894 36.0139C128 35.3699 129.288 35.0479 130.758 35.0479C132.214 35.0479 133.495 35.3699 134.601 36.0139C135.707 36.6579 136.568 37.5539 137.184 38.7019C137.8 39.8359 138.108 41.1519 138.108 42.6499C138.108 44.1479 137.8 45.4709 137.184 46.6189C136.568 47.7529 135.707 48.6419 134.601 49.2859C133.495 49.9299 132.214 50.2519 130.758 50.2519ZM130.758 47.8368C132.158 47.8368 133.271 47.3749 134.097 46.4509C134.937 45.5269 135.357 44.2599 135.357 42.6499C135.357 41.0399 134.937 39.7729 134.097 38.8489C133.271 37.9249 132.158 37.4629 130.758 37.4629C129.358 37.4629 128.238 37.9249 127.398 38.8489C126.558 39.7729 126.138 41.0399 126.138 42.6499C126.138 44.2599 126.558 45.5269 127.398 46.4509C128.238 47.3749 129.358 47.8368 130.758 47.8368Z" fill="#3C1121"/>
</g>
<defs>
<clipPath id="clip0_6839_45901">
<rect width="387" height="88" fill="white"/>
</clipPath>
</defs>
</svg>
