<svg xmlns="http://www.w3.org/2000/svg" width="1136" height="600" viewBox="0 0 1136 600" fill="none"><g opacity="0.5" clip-path="url(#clip0_3860_38824)"><path fill-rule="evenodd" clip-rule="evenodd" d="M-205.18 994.879C-165.679 947.418 -97.0474 906.137 20.9544 895.142C190.495 879.293 282.26 988.176 351.036 1098.99C364.232 1120.25 376.588 1141.59 388.485 1162.14C392.089 1168.36 395.651 1174.52 399.182 1180.57C414.37 1206.62 428.974 1230.88 443.856 1251.44C473.641 1292.59 504.416 1318.78 543.026 1315.17C581.681 1311.55 614.988 1279.31 648.532 1232.22C669.193 1203.22 689.887 1168.68 711.946 1131.85C725.693 1108.9 739.97 1085.07 755.098 1061.14C833.856 936.583 935.582 809.698 1105.07 793.853C1223.03 782.828 1288.74 811.577 1324.56 852.077C1360.36 892.557 1366.2 944.657 1364.69 980.119L1363.69 980.076C1365.19 944.728 1359.36 892.939 1323.81 852.74C1288.27 812.561 1222.94 783.841 1105.17 794.849C936.188 810.646 834.691 937.135 755.943 1061.68C740.847 1085.55 726.583 1109.37 712.839 1132.31C690.76 1169.17 670.025 1203.78 649.347 1232.8C615.805 1279.89 582.265 1312.5 543.119 1316.16C503.927 1319.83 472.852 1293.21 443.046 1252.02C428.133 1231.42 413.507 1207.13 398.318 1181.08C394.784 1175.01 391.22 1168.86 387.614 1162.63C375.719 1142.08 363.374 1120.76 350.187 1099.51C281.444 988.758 189.975 880.346 21.0473 896.137L21.0007 895.64L21.0471 896.137C-96.7491 907.114 -165.114 948.302 -204.411 995.519C-243.718 1042.75 -253.999 1096.07 -255.501 1131.41L-256.5 1131.37C-254.993 1095.89 -244.672 1042.33 -205.18 994.879ZM-203.253 949.713C-163.745 902.251 -95.1132 860.97 22.8579 849.975C192.398 834.126 284.164 942.994 352.94 1053.8C366.14 1075.06 378.499 1096.41 390.398 1116.96C393.999 1123.18 397.558 1129.33 401.086 1135.38C416.274 1161.43 430.878 1185.68 445.76 1206.25C475.544 1247.4 506.32 1273.6 544.929 1270L544.976 1270.5L544.929 1270C583.585 1266.38 616.892 1234.14 650.436 1187.06C671.096 1158.06 691.791 1123.51 713.85 1086.68C727.597 1063.74 741.873 1039.9 757.002 1015.98C835.76 891.416 937.485 764.531 1106.98 748.687C1224.97 737.662 1290.67 766.41 1326.48 806.91C1362.28 847.39 1368.1 899.491 1366.59 934.952L1365.59 934.91C1367.1 899.561 1361.28 847.772 1325.74 807.573C1290.21 767.395 1224.87 738.675 1107.07 749.682C938.091 765.479 836.594 891.968 757.847 1016.51C742.751 1040.39 728.486 1064.2 714.743 1087.14C692.664 1124 671.929 1158.61 651.25 1187.64C617.709 1234.72 584.168 1267.33 545.022 1271L544.982 1270.57L545.022 1271C505.831 1274.65 474.755 1248.02 444.95 1206.83C430.036 1186.23 415.41 1161.93 400.222 1135.88C396.691 1129.83 393.13 1123.68 389.527 1117.45C377.629 1096.9 365.281 1075.57 352.09 1054.32C283.348 943.576 191.879 835.179 22.9507 850.971C-94.8148 861.947 -163.179 903.135 -202.485 950.352C-241.799 997.58 -252.096 1050.91 -253.597 1086.24L-254.596 1086.2C-253.089 1050.73 -242.753 997.163 -203.253 949.713ZM-201.35 904.561C-161.841 857.085 -93.2098 815.773 24.7614 804.747L24.7983 805.142L24.7614 804.747C194.302 788.929 286.067 897.812 354.843 1008.62C368.042 1029.89 380.399 1051.23 392.297 1071.78C395.9 1078.01 399.46 1084.16 402.989 1090.21C418.177 1116.26 432.781 1140.52 447.663 1161.08C477.448 1202.23 508.224 1228.43 546.833 1224.83C585.488 1221.22 618.795 1188.98 652.339 1141.89C673 1112.89 693.695 1078.34 715.754 1041.52C729.5 1018.57 743.777 994.737 758.905 970.811C837.663 846.25 939.389 719.365 1108.88 703.52C1226.84 692.495 1292.55 721.243 1328.37 761.744C1364.17 802.224 1370 854.324 1368.5 889.785L1367.5 889.743C1369 854.395 1363.17 802.605 1327.62 762.406C1292.08 722.228 1226.75 693.508 1108.97 704.516C939.995 720.312 838.498 846.801 759.75 971.345C744.654 995.221 730.39 1019.03 716.646 1041.97C694.567 1078.83 673.832 1113.44 653.154 1142.47C619.612 1189.55 586.072 1222.17 546.926 1225.83L546.886 1225.4L546.926 1225.83C507.734 1229.48 476.659 1202.85 446.853 1161.66C431.94 1141.06 417.314 1116.76 402.125 1090.71C398.593 1084.65 395.03 1078.5 391.426 1072.28C379.53 1051.73 367.183 1030.4 353.994 1009.15C285.251 898.394 193.782 789.981 24.8544 805.743L24.8079 805.245L24.8544 805.743C-92.911 816.75 -161.276 857.968 -200.581 905.201C-239.896 952.444 -250.192 1005.77 -251.694 1041.08L-252.693 1041.03C-251.186 1005.59 -240.85 952.027 -201.35 904.561ZM-199.416 859.41C-159.922 811.933 -91.3061 770.637 26.6651 759.642C196.206 743.792 287.971 852.676 356.747 963.486C369.943 984.747 382.299 1006.09 394.195 1026.64C397.8 1032.86 401.362 1039.02 404.893 1045.07C420.081 1071.12 434.685 1095.38 449.567 1115.94C479.351 1157.09 510.127 1183.28 548.736 1179.67C587.392 1176.06 620.699 1143.83 654.243 1096.75C674.908 1067.75 695.606 1033.19 717.67 996.356C731.413 973.414 745.685 949.588 760.809 925.667C839.567 801.098 941.292 674.198 1110.78 658.353C1228.75 647.328 1294.45 676.077 1330.27 716.577C1366.07 757.057 1371.91 809.157 1370.4 844.619L1369.4 844.576C1370.9 809.228 1365.07 757.439 1329.52 717.24C1293.99 677.061 1228.65 648.341 1110.88 659.349C941.898 675.145 840.401 801.65 761.654 926.202C746.563 950.071 732.303 973.876 718.563 996.813C696.479 1033.68 675.74 1068.3 655.057 1097.33C621.516 1144.41 587.975 1177.01 548.83 1180.66C509.638 1184.33 478.562 1157.71 448.757 1116.52C433.843 1095.92 419.217 1071.63 404.029 1045.58C400.495 1039.52 396.931 1033.36 393.325 1027.13C381.43 1006.58 369.085 985.26 355.897 964.013C287.155 853.258 195.686 744.845 26.7578 760.637C-91.0075 771.613 -159.357 812.817 -198.647 860.049C-237.946 907.293 -248.227 960.633 -249.729 995.97L-250.728 995.928C-249.221 960.455 -238.9 906.876 -199.416 859.41ZM-197.504 814.266C-158.003 766.797 -89.3718 725.501 28.6299 714.475C198.171 698.626 289.936 807.509 358.712 918.319C371.908 939.58 384.264 960.923 396.161 981.471C399.765 987.697 403.327 993.85 406.858 999.906C422.046 1025.96 436.65 1050.21 451.532 1070.77C481.317 1111.92 512.092 1138.11 550.701 1134.5C589.357 1130.9 622.664 1098.67 656.208 1051.58C676.872 1022.58 697.571 988.024 719.635 951.19C733.378 928.248 747.65 904.421 762.774 880.5C841.532 755.932 943.257 629.031 1112.75 613.187C1230.71 602.161 1296.41 630.91 1332.23 671.41C1368.03 711.89 1373.87 763.99 1372.36 799.452L1371.37 799.41C1372.87 764.061 1367.04 712.272 1331.48 672.073C1295.95 631.895 1230.62 603.175 1112.84 614.182C943.863 629.979 842.366 756.483 763.619 881.035C748.528 904.904 734.268 928.71 720.528 951.646C698.444 988.512 677.705 1023.13 657.022 1052.16C623.481 1099.24 589.94 1131.85 550.795 1135.5C511.603 1139.17 480.527 1112.54 450.722 1071.36C435.808 1050.75 421.182 1026.46 405.994 1000.41C402.46 994.348 398.896 988.192 395.29 981.964C383.395 961.417 371.05 940.093 357.862 918.846C289.12 808.091 197.651 699.679 28.723 715.471C-89.0733 726.477 -157.438 767.681 -196.736 814.906C-236.043 862.141 -246.324 915.466 -247.825 950.803L-248.824 950.761C-247.317 915.288 -236.997 861.724 -197.504 814.266ZM-195.601 769.099C-156.1 721.63 -87.4683 680.334 30.5335 669.308C200.074 653.459 291.84 762.343 360.615 873.152C373.812 894.413 386.167 915.755 398.064 936.304C401.668 942.53 405.231 948.683 408.762 954.739C423.949 980.79 438.554 1005.04 453.435 1025.61C483.22 1066.76 513.996 1092.95 552.605 1089.33L552.698 1090.33C513.506 1094 482.431 1067.37 452.625 1026.19C437.712 1005.59 423.086 981.294 407.898 955.243C404.364 949.182 400.799 943.025 397.193 936.797C385.298 916.25 372.953 894.927 359.766 873.679C291.024 762.924 199.554 654.512 30.6265 670.304C-87.1697 681.311 -155.534 722.514 -194.832 769.739C-234.139 816.975 -244.42 870.3 -245.922 905.637L-246.921 905.594C-245.413 870.121 -235.093 816.558 -195.601 769.099ZM-193.674 723.933C-154.166 676.464 -85.534 635.168 32.437 624.142C201.978 608.292 293.743 717.176 362.519 827.985C375.715 849.247 388.071 870.589 399.967 891.137C403.572 897.363 407.134 903.517 410.665 909.573C425.853 935.623 440.457 959.877 455.339 980.438C485.124 1021.59 515.899 1047.78 554.508 1044.17L554.602 1045.16C515.41 1048.83 484.335 1022.21 454.529 981.025C439.615 960.42 424.99 936.128 409.801 910.076C406.267 904.015 402.703 897.858 399.097 891.629C387.202 871.083 374.857 849.76 361.669 828.513C292.927 717.758 201.458 609.345 32.5301 625.137C-85.2354 636.144 -153.6 677.347 -192.906 724.572C-232.22 771.808 -242.517 825.133 -244.018 860.47L-245.017 860.428C-243.51 824.954 -233.174 771.391 -193.674 723.933ZM-191.755 678.797C-152.247 631.328 -83.5996 590.031 34.4022 579.036C203.943 563.187 295.708 672.055 364.484 782.857C377.684 804.123 390.043 825.47 401.942 846.023C405.543 852.243 409.103 858.39 412.63 864.44C427.818 890.49 442.422 914.744 457.304 935.307C487.089 976.462 517.864 1002.66 556.474 999.062L556.567 1000.06C517.375 1003.71 486.3 977.077 456.494 935.893C441.58 915.287 426.955 890.995 411.766 864.944C408.236 858.888 404.674 852.737 401.072 846.515C389.174 825.964 376.825 804.636 363.634 783.384C294.892 672.637 203.423 564.24 34.4951 580.032L34.4486 579.534L34.495 580.032C-83.3012 591.008 -151.681 632.211 -190.987 679.436C-230.301 726.672 -240.582 779.997 -242.053 815.303L-243.052 815.261C-241.576 779.818 -231.255 726.255 -191.755 678.797ZM-189.836 633.63C-150.343 586.146 -81.7269 544.834 36.2442 533.808C205.785 517.99 297.55 626.873 366.326 737.683C379.525 758.948 391.882 780.293 403.78 800.845C407.383 807.068 410.943 813.218 414.472 819.27C429.66 845.321 444.264 869.576 459.146 890.14C488.931 931.295 519.706 957.494 558.316 953.895L558.409 954.891C519.217 958.544 488.142 931.911 458.336 890.726C443.423 870.119 428.797 845.826 413.608 819.774C410.076 813.715 406.513 807.561 402.909 801.336C391.013 780.787 378.666 759.46 365.476 738.21C296.734 627.455 205.265 519.043 36.3372 534.804C-81.4282 545.811 -149.777 587.029 -189.068 634.269C-228.367 681.52 -238.648 734.861 -240.149 770.198L-241.149 770.155C-239.641 734.682 -229.321 681.104 -189.836 633.63ZM-187.925 588.494C-148.424 541.025 -79.7925 499.729 38.2092 488.703C207.75 472.854 299.515 581.722 368.291 692.524C381.491 713.79 393.85 735.137 405.75 755.69C409.351 761.91 412.91 768.057 416.437 774.107C431.625 800.157 446.229 824.411 461.111 844.974C490.896 886.129 521.671 912.328 560.281 908.728L560.374 909.724C521.182 913.377 490.107 886.744 460.301 845.56C445.388 824.953 430.762 800.661 415.573 774.611C412.043 768.555 408.482 762.404 404.879 756.182C392.981 735.631 380.633 714.303 367.442 693.051C298.699 582.304 207.23 473.907 38.3022 489.699C-79.494 500.705 -147.859 541.909 -187.156 589.134C-226.463 636.369 -236.744 689.694 -238.246 725.031L-239.245 724.989C-237.738 689.516 -227.417 635.952 -187.925 588.494ZM-185.998 543.335C-146.49 495.873 -77.8582 454.593 40.1129 443.597C209.653 427.748 301.419 536.632 370.195 647.441C383.391 668.702 395.746 690.044 407.643 710.593C411.247 716.819 414.81 722.972 418.341 729.028C433.529 755.079 448.133 779.333 463.015 799.894C492.799 841.046 523.575 867.237 562.184 863.623L562.277 864.619C523.086 868.287 492.01 841.662 462.205 800.48C447.291 779.875 432.665 755.583 417.477 729.532C413.943 723.471 410.379 717.314 406.773 711.086C394.878 690.539 382.533 669.216 369.345 647.968C300.603 537.213 209.134 428.801 40.2057 444.593C-77.5598 455.569 -145.924 496.757 -185.23 543.975C-224.544 591.203 -234.841 644.527 -236.342 679.864L-237.341 679.822C-235.834 644.349 -225.498 590.785 -185.998 543.335ZM-184.095 498.222C-144.586 450.753 -75.9547 409.457 42.0163 398.431C211.557 382.581 303.322 491.465 372.098 602.274C385.295 623.536 397.65 644.878 409.547 665.426C413.151 671.652 416.714 677.806 420.244 683.862C435.432 709.912 450.036 734.166 464.918 754.727C494.703 795.88 525.478 822.071 564.088 818.456L564.181 819.452C524.989 823.121 493.914 796.495 464.108 755.314C449.195 734.709 434.569 710.417 419.38 684.365C415.846 678.303 412.282 672.146 408.675 665.917C396.781 645.372 384.436 624.048 371.249 602.802C302.506 492.047 211.037 383.634 42.1094 399.426C-75.6561 410.433 -144.021 451.636 -183.326 498.861C-222.641 546.097 -232.937 599.422 -234.439 634.759L-235.438 634.717C-233.931 599.243 -223.595 545.68 -184.095 498.222ZM-182.13 453.055C-142.621 405.586 -73.9897 364.29 43.9813 353.264C213.522 337.415 305.287 446.298 374.063 557.108C387.26 578.369 399.615 599.711 411.512 620.26C415.116 626.486 418.679 632.639 422.209 638.695C437.397 664.746 452.001 688.999 466.883 709.561C496.668 750.713 527.444 776.904 566.053 773.29L566.146 774.285C526.954 777.954 495.879 751.328 466.073 710.147C451.16 689.542 436.534 665.25 421.345 639.199C417.811 633.137 414.247 626.98 410.641 620.751C398.746 600.205 386.401 578.882 373.214 557.635C304.471 446.88 213.002 338.468 44.0744 354.26C-73.6911 365.266 -142.056 406.47 -181.361 453.695C-220.676 500.93 -230.972 554.255 -232.474 589.592L-233.473 589.55C-231.966 554.077 -221.63 500.513 -182.13 453.055ZM-180.249 407.888C-140.748 360.419 -72.1168 319.123 45.8849 308.097C215.425 292.248 307.191 401.116 375.967 511.918C389.167 533.184 401.526 554.531 413.426 575.085C417.027 581.304 420.586 587.451 424.113 593.501C439.301 619.551 453.905 643.805 468.787 664.368C498.572 705.523 529.347 731.722 567.957 728.123L568.049 729.119C528.858 732.772 497.782 706.138 467.977 664.955C453.063 644.348 438.437 620.056 423.249 594.005C419.718 587.949 416.157 581.799 412.555 575.577C400.657 555.026 388.308 533.697 375.117 512.445C306.375 401.698 214.906 293.301 45.9779 309.093C-71.8183 320.1 -140.183 361.303 -179.481 408.528C-218.788 455.764 -229.069 509.088 -230.57 544.426L-231.569 544.383C-230.062 508.91 -219.742 455.347 -180.249 407.888ZM-178.323 362.722C-138.814 315.253 -70.1826 273.957 47.7885 262.931C217.329 247.081 309.095 355.95 377.87 466.751C391.071 488.018 403.43 509.365 415.329 529.918C418.93 536.138 422.489 542.285 426.017 548.335C441.204 574.385 455.809 598.639 470.69 619.202C500.475 660.357 531.251 686.555 569.86 682.956L569.953 683.952C530.761 687.605 499.686 660.972 469.88 619.788C454.967 599.181 440.341 574.889 425.153 548.838C421.622 542.782 418.061 536.631 414.458 530.409C402.56 509.858 390.212 488.53 377.021 467.279C308.279 356.531 216.809 248.134 47.8815 263.926C-69.884 274.933 -138.249 316.136 -177.554 363.361C-216.869 410.597 -227.165 463.922 -228.667 499.259L-229.666 499.216C-228.158 463.743 -217.823 410.18 -178.323 362.722ZM-176.419 317.555C-136.911 270.086 -68.279 228.79 49.6921 217.764C219.233 201.945 310.998 310.829 379.774 421.638C392.972 442.903 405.33 464.248 417.228 484.799C420.83 491.022 424.391 497.173 427.92 503.226C443.108 529.277 457.712 553.532 472.594 574.095C502.379 615.251 533.154 641.45 571.764 637.851L571.856 638.846C532.665 642.5 501.59 615.866 471.784 574.681C456.87 554.074 442.245 529.782 427.056 503.73C423.524 497.671 419.961 491.516 416.357 485.291C404.46 464.742 392.113 443.415 378.924 422.166C310.182 311.41 218.713 202.998 49.7851 218.76C-67.9804 229.766 -136.345 270.97 -175.651 318.195C-214.965 365.43 -225.262 418.755 -226.763 454.092L-227.762 454.05C-226.255 418.577 -215.919 365.013 -176.419 317.555ZM-176.174 263.453C-136.665 215.984 -68.0334 174.688 49.9377 163.662C219.478 147.813 311.244 256.681 380.02 367.483C393.22 388.748 405.578 410.095 417.478 430.648C421.079 436.868 424.638 443.016 428.166 449.066C443.354 475.116 457.958 499.37 472.84 519.933C502.624 561.088 533.4 587.286 572.009 583.687L572.102 584.683C532.91 588.336 501.835 561.703 472.029 520.519C457.116 499.912 442.49 475.62 427.302 449.57C423.771 443.514 420.21 437.363 416.607 431.14C404.709 410.59 392.361 389.261 379.17 368.01C310.428 257.262 218.958 148.866 50.0307 164.658C-67.7348 175.664 -136.099 216.868 -175.405 264.093C-214.719 311.328 -225.016 364.653 -226.517 399.99L-227.517 399.948C-226.009 364.475 -215.673 310.911 -176.174 263.453ZM-174.209 218.286C-134.7 170.817 -66.0684 129.521 51.9027 118.495C221.443 102.646 313.209 211.529 381.985 322.339C395.181 343.6 407.537 364.942 419.433 385.491C423.038 391.717 426.6 397.87 430.131 403.926C445.319 429.977 459.923 454.23 474.805 474.792C504.589 515.944 535.365 542.135 573.974 538.521C612.629 534.917 645.937 502.686 679.481 455.603C700.145 426.599 720.844 392.044 742.908 355.21C756.65 332.268 770.923 308.441 786.046 284.521C864.805 159.952 966.53 33.0512 1136.02 17.2066C1253.98 6.18157 1319.69 34.93 1355.51 75.4305C1391.31 115.91 1397.14 168.011 1395.64 203.472L1394.64 203.43C1396.14 168.081 1390.31 116.292 1354.76 76.0929C1319.22 35.9146 1253.89 7.19488 1136.11 18.2023C967.136 33.9988 865.639 160.503 786.892 285.055C771.8 308.924 757.54 332.73 743.801 355.666C721.717 392.533 700.978 427.153 680.295 456.184C646.753 503.263 613.213 535.867 574.067 539.516C534.875 543.185 503.8 516.559 473.994 475.378C459.081 454.773 444.455 430.481 429.267 404.43C425.733 398.369 422.169 392.212 418.563 385.984C406.668 365.438 394.323 344.114 381.135 322.866C312.393 212.111 220.923 103.699 51.9957 119.491C-65.7698 130.497 -134.134 171.701 -173.44 218.926C-212.754 266.162 -223.051 319.487 -224.552 354.823L-225.552 354.781C-224.044 319.308 -213.708 265.745 -174.209 218.286ZM-172.305 173.12C-132.796 125.651 -64.1648 84.3544 53.8062 73.3285C223.347 57.4792 315.112 166.363 383.888 277.172C397.084 298.434 409.44 319.776 421.337 340.324C424.941 346.55 428.503 352.703 432.034 358.759C447.222 384.81 461.826 409.064 476.708 429.625C506.493 470.777 537.268 496.968 575.878 493.354C614.533 489.751 647.84 457.519 681.384 410.437C702.049 381.432 722.748 346.877 744.812 310.043C758.554 287.101 772.826 263.274 787.95 239.354C866.708 114.785 968.433 -12.1154 1137.92 -27.96C1255.89 -38.9851 1321.59 -10.2368 1357.41 30.2638C1393.21 70.7435 1399.05 122.844 1397.54 158.305L1396.54 158.263C1398.04 122.915 1392.21 71.1254 1356.66 30.9263C1321.13 -9.25202 1255.79 -37.9719 1138.02 -26.9643C969.04 -11.1678 867.543 115.336 788.795 239.888C773.704 263.758 759.444 287.563 745.704 310.5C723.62 347.366 702.881 381.987 682.199 411.017C648.657 458.097 615.116 490.701 575.971 494.35C536.779 498.019 505.704 471.393 475.898 430.212C460.985 409.606 446.359 385.315 431.17 359.263C427.637 353.202 424.072 347.045 420.467 340.817C408.571 320.271 396.226 298.947 383.039 277.7C314.296 166.944 222.827 58.5322 53.8993 74.3241C-63.8662 85.3308 -132.231 126.534 -171.536 173.759C-210.851 220.995 -221.147 274.32 -222.649 309.657L-223.648 309.614C-222.141 274.141 -211.805 220.578 -172.305 173.12ZM-170.401 127.953C-130.893 80.4839 -62.2613 39.1877 55.7098 28.1619C225.25 12.3126 317.016 121.196 385.792 232.006C398.988 253.267 411.344 274.609 423.24 295.158C426.845 301.384 430.407 307.537 433.938 313.593C449.126 339.643 463.73 363.897 478.612 384.459C508.396 425.611 539.172 451.802 577.781 448.187C616.436 444.569 649.744 412.33 683.288 365.244C703.948 336.243 724.643 301.696 746.702 264.871C760.449 241.923 774.725 218.091 789.854 194.164C868.612 69.603 970.337 -57.2822 1139.83 -73.1268C1257.79 -84.1518 1323.49 -55.4034 1359.31 -14.9029C1395.11 25.5768 1400.95 77.6772 1399.44 113.139L1398.45 113.096C1399.95 77.748 1394.12 25.9588 1358.56 -14.2404C1323.03 -54.4186 1257.7 -83.1385 1139.92 -72.131C970.943 -56.3344 869.446 70.1545 790.699 194.699C775.603 218.574 761.339 242.386 747.595 265.328C725.516 302.185 704.781 336.798 684.102 365.825C650.561 412.907 617.02 445.519 577.874 449.183C538.683 452.852 507.607 426.226 477.802 385.045C462.888 364.44 448.262 340.148 433.074 314.096C429.54 308.035 425.976 301.879 422.37 295.651C410.475 275.105 398.13 253.78 384.942 232.533C316.2 121.778 224.731 13.3656 55.8029 29.1575C-61.9626 40.1642 -130.327 81.3675 -169.633 128.593C-208.947 175.828 -219.244 229.153 -220.745 264.49L-221.744 264.448C-220.237 228.974 -209.901 175.411 -170.401 127.953ZM-168.498 82.7861C-128.989 35.3171 -60.3577 -5.97901 57.6134 -17.0049C227.154 -32.8541 318.919 76.0141 387.695 186.816C400.895 208.082 413.254 229.428 425.153 249.981C428.755 256.201 432.314 262.349 435.841 268.399C451.029 294.449 465.634 318.703 480.515 339.266C510.3 380.421 541.076 406.62 579.685 403.021C618.34 399.417 651.648 367.186 685.191 320.103C705.856 291.099 726.555 256.544 748.619 219.709C762.361 196.767 776.634 172.941 791.757 149.02C870.515 24.4516 972.241 -102.449 1141.73 -118.293C1259.72 -129.319 1325.43 -100.57 1361.24 -60.0695C1397.03 -19.5898 1402.86 32.5107 1401.35 67.9721L1400.35 67.9297C1401.85 32.5811 1396.04 -19.2081 1360.49 -59.4072C1324.96 -99.5854 1259.63 -128.305 1141.82 -117.298C972.847 -101.501 871.35 25.0031 792.602 149.555C777.511 173.424 763.251 197.229 749.512 220.165C727.428 257.032 706.689 291.653 686.006 320.684C652.464 367.763 618.924 400.367 579.778 404.016C540.586 407.67 509.511 381.036 479.705 339.852C464.792 319.246 450.166 294.954 434.978 268.903C431.447 262.847 427.886 256.696 424.283 250.474C412.385 229.923 400.037 208.595 386.846 187.343C318.104 76.5958 226.634 -31.8012 57.7065 -16.0093C-60.059 -5.00257 -128.424 36.2008 -167.729 83.4258C-207.044 130.661 -217.34 183.986 -218.842 219.323L-219.841 219.281C-218.333 183.808 -207.998 130.244 -168.498 82.7861ZM-166.594 37.6194C-127.086 -9.84962 -58.4541 -51.1458 59.5169 -62.1716C229.058 -77.9903 320.823 30.8933 389.599 141.703C402.797 162.968 415.155 184.313 427.053 204.865C430.656 211.088 434.216 217.238 437.745 223.29C452.933 249.342 467.537 273.596 482.419 294.16C512.204 335.316 542.979 361.514 581.589 357.915L581.681 358.911C542.49 362.564 511.414 335.931 481.609 294.746C466.695 274.139 452.069 249.846 436.881 223.794C433.348 217.735 429.785 211.58 426.181 205.354C414.284 184.806 401.938 163.479 388.749 142.23C320.007 31.475 228.538 -76.9374 59.61 -61.176C-58.1555 -50.1693 -126.52 -8.96583 -165.826 38.2592C-205.14 85.4947 -215.437 138.82 -216.938 174.157L-217.937 174.114C-216.43 138.641 -206.094 85.0776 -166.594 37.6194ZM-164.629 -7.48609C-125.121 -54.9551 -56.4891 -96.2512 61.4819 -107.277C231.023 -123.126 322.788 -14.2427 391.564 96.5667C404.76 117.828 417.116 139.17 429.013 159.719C432.617 165.945 436.179 172.098 439.71 178.154C454.898 204.205 469.502 228.458 484.384 249.02C514.154 290.152 544.915 316.338 583.498 312.754L583.492 312.687C622.147 309.084 655.455 276.853 688.999 229.77C709.663 200.765 730.362 166.21 752.426 129.376C766.169 106.434 780.441 82.6074 795.564 58.6871C874.323 -65.8818 976.048 -192.782 1145.54 -208.627C1263.5 -219.652 1329.21 -190.904 1365.02 -150.403C1400.83 -109.923 1406.66 -57.8228 1405.16 -22.3612L1404.16 -22.4036C1405.66 -57.7521 1399.83 -109.541 1364.28 -149.74C1328.74 -189.919 1263.41 -218.639 1145.63 -207.631C976.654 -191.835 875.157 -65.3302 796.409 59.2215C781.318 83.0905 767.058 106.896 753.319 129.832C731.235 166.699 710.496 201.32 689.813 230.35C656.287 277.408 622.762 310.003 583.64 313.678L583.647 313.744C544.455 317.413 513.379 290.787 483.574 249.606C468.66 229.001 454.034 204.709 438.846 178.658C435.312 172.597 431.748 166.44 428.143 160.212C416.247 139.666 403.902 118.342 390.714 97.0941C321.972 -13.6612 230.503 -122.073 61.575 -106.281C-56.1905 -95.2748 -124.555 -54.0713 -163.861 -6.84632C-203.175 40.3893 -213.472 93.7144 -214.973 129.051L-215.972 129.009C-214.465 93.5356 -204.129 39.9723 -164.629 -7.48609ZM-162.749 -52.6527C-123.248 -100.122 -54.6162 -141.418 63.3855 -152.444C232.926 -168.293 324.692 -59.4094 393.467 51.4C406.664 72.6615 419.02 94.0035 430.916 114.552C434.521 120.778 438.083 126.931 441.614 132.987C456.801 159.038 471.406 183.292 486.287 203.853C516.058 244.986 546.818 271.171 585.402 267.587L585.396 267.521C624.051 263.917 657.358 231.686 690.902 184.603C711.567 155.598 732.266 121.043 754.33 84.2092C768.072 61.267 782.344 37.4408 797.468 13.5205C876.226 -111.048 977.951 -237.949 1147.44 -253.794C1265.4 -264.819 1331.11 -236.07 1366.93 -195.57C1402.73 -155.09 1408.57 -102.99 1407.06 -67.5279L1406.06 -67.5704C1407.56 -102.919 1401.73 -154.708 1366.18 -194.907C1330.64 -235.086 1265.31 -263.805 1147.54 -252.798C978.558 -237.001 877.061 -110.497 798.313 14.0548C783.222 37.9239 768.962 61.7292 755.222 84.6654C733.138 121.532 712.399 156.153 691.717 185.184C658.191 232.241 624.666 264.837 585.544 268.511L585.55 268.578C546.358 272.246 515.283 245.62 485.477 204.439C470.564 183.834 455.938 159.542 440.75 133.491C437.216 127.43 433.652 121.273 430.046 115.046C418.151 94.499 405.805 73.1748 392.618 51.9273C323.876 -58.8279 232.406 -167.24 63.4785 -151.448C-54.3177 -140.442 -122.682 -99.238 -161.98 -52.0131C-201.287 -4.77747 -211.568 48.5475 -213.07 83.8845L-214.069 83.842C-212.561 48.369 -202.241 -5.19434 -162.749 -52.6527ZM-160.822 -97.8195C-121.313 -145.288 -52.682 -186.585 65.2891 -197.61C234.83 -213.46 326.595 -104.576 395.371 6.23337C408.567 27.4948 420.923 48.8369 432.82 69.3857C436.424 75.6117 439.986 81.7647 443.517 87.8206C458.705 113.871 473.309 138.125 488.191 158.686C517.962 199.819 548.722 226.004 587.305 222.42L587.299 222.354C625.954 218.751 659.262 186.519 692.806 139.437C713.47 110.432 734.169 75.8767 756.233 39.0424C769.976 16.1003 784.248 -7.726 799.371 -31.6463C878.13 -156.215 979.855 -283.116 1149.35 -298.96C1267.34 -309.985 1333.04 -281.237 1368.85 -240.736C1404.65 -200.257 1410.47 -148.156 1408.96 -112.695L1407.96 -112.737C1409.47 -148.086 1403.65 -199.875 1368.11 -240.074C1332.58 -280.252 1267.24 -308.972 1149.44 -297.965C980.461 -282.168 878.964 -155.664 800.217 -31.1119C785.126 -7.24284 770.866 16.5623 757.126 39.4984C735.042 76.3652 714.303 110.986 693.62 140.017C660.094 187.074 626.57 219.67 587.448 223.345L587.454 223.411C548.262 227.08 517.187 200.454 487.381 159.273C472.467 138.667 457.842 114.376 442.653 88.3243C439.12 82.2632 435.555 76.1068 431.95 69.879C420.054 49.3324 407.709 28.0081 394.521 6.76071C325.779 -103.995 234.31 -212.407 65.3822 -196.615C-52.3833 -185.608 -120.748 -144.405 -160.054 -97.1797C-199.368 -49.944 -209.664 3.38098 -211.166 38.7179L-212.165 38.6754C-210.658 3.20227 -200.322 -50.3611 -160.822 -97.8195ZM-158.919 -142.986C-119.41 -190.455 -50.7784 -231.751 67.1927 -242.777C236.733 -258.626 328.499 -149.743 397.275 -38.9334C410.472 -17.6707 422.828 3.67233 434.725 24.2221C438.329 30.447 441.891 36.5991 445.421 42.654C460.609 68.7044 475.213 92.9583 490.095 113.52C519.865 154.652 550.626 180.838 589.209 177.254L589.203 177.187C627.858 173.584 661.165 141.353 694.709 94.27C715.374 65.265 736.073 30.7099 758.137 -6.12431C771.879 -29.0665 786.151 -52.8927 801.275 -76.813C880.033 -201.382 981.758 -328.282 1151.25 -344.127C1269.24 -355.152 1334.95 -326.404 1370.76 -285.903C1406.55 -245.423 1412.37 -193.323 1410.87 -157.861L1409.87 -157.904C1411.37 -193.252 1405.55 -245.042 1370.01 -285.241C1334.48 -325.419 1269.15 -354.139 1151.34 -343.131C982.365 -327.335 880.868 -200.83 802.12 -76.2786C787.029 -52.4095 772.769 -28.604 759.03 -5.66789C736.945 31.1987 716.206 65.8198 695.524 94.8503C661.998 141.908 628.473 174.503 589.351 178.178L589.357 178.244C550.165 181.913 519.09 155.287 489.284 114.106C474.371 93.5008 459.745 69.209 444.557 43.1577C441.023 37.096 437.458 30.9392 433.852 24.7108C421.957 4.16464 409.612 -17.1591 396.425 -38.406C327.683 -149.161 236.213 -257.573 67.2857 -241.782C-50.4798 -230.775 -118.844 -189.571 -158.15 -142.346C-197.464 -95.1107 -207.761 -41.7858 -209.262 -6.44885L-210.262 -6.49121C-208.754 -41.9645 -198.418 -95.5278 -158.919 -142.986ZM-156.954 -188.153C-117.445 -235.622 -48.8134 -276.918 69.1576 -287.944C238.698 -303.793 330.464 -194.925 399.24 -84.123C412.44 -62.8562 424.8 -41.5087 436.7 -20.9547C440.3 -14.7356 443.859 -8.58914 447.386 -2.53958C462.573 23.5102 477.178 47.7644 492.06 68.3272C521.814 109.441 552.558 135.628 591.113 132.093L591.106 132.021C629.762 128.402 663.069 96.1632 696.613 49.0776C717.273 20.0766 737.968 -14.4704 760.027 -51.2951C773.774 -74.2433 788.05 -98.0761 803.179 -122.003C881.937 -246.564 983.662 -373.449 1153.15 -389.294C1271.12 -400.319 1336.82 -371.57 1372.64 -331.07C1408.44 -290.59 1414.28 -238.49 1412.77 -203.028L1411.77 -203.071C1413.27 -238.419 1407.44 -290.208 1371.89 -330.407C1336.36 -370.586 1271.02 -399.305 1153.25 -388.298C984.268 -372.501 882.771 -246.012 804.024 -121.468C788.928 -97.5929 774.664 -73.7812 760.92 -50.839C738.841 -13.9817 718.106 20.6313 697.427 49.6578C663.919 96.6939 630.411 129.287 591.315 133.005L591.322 133.077C552.13 136.731 521.055 110.097 491.249 68.9134C476.336 48.3069 461.71 24.0149 446.522 -2.03592C442.991 -8.09183 439.43 -14.2428 435.827 -20.4651C423.929 -41.0159 411.581 -62.3443 398.39 -83.5956C329.648 -194.343 238.178 -302.74 69.2507 -286.948C-48.5148 -275.941 -116.879 -234.738 -156.185 -187.513C-195.499 -140.277 -205.796 -86.9525 -207.297 -51.6155L-208.297 -51.658C-206.789 -87.1311 -196.453 -140.695 -156.954 -188.153ZM-155.05 -233.319C-115.541 -280.788 -46.9098 -322.085 71.0612 -333.11C240.602 -348.929 332.367 -240.046 401.143 -129.236C414.341 -107.971 426.699 -86.6261 438.597 -66.0742C442.2 -59.8515 445.76 -53.7014 449.289 -47.6483C464.477 -21.5973 479.081 2.65744 493.963 23.2208C523.719 64.3374 554.465 90.5255 593.022 86.9867L593.01 86.854C631.665 83.2354 664.973 50.9964 698.517 3.91085C719.177 -25.09 739.871 -59.6368 761.93 -96.4612C775.677 -119.41 789.954 -143.243 805.082 -167.169C883.84 -291.731 985.566 -418.616 1155.06 -434.46C1273.02 -445.485 1338.72 -416.737 1374.54 -376.236C1410.34 -335.757 1416.18 -283.656 1414.67 -248.195L1413.67 -248.237C1415.18 -283.586 1409.35 -335.375 1373.79 -375.574C1338.26 -415.752 1272.92 -444.472 1155.15 -433.465C986.172 -417.668 884.675 -291.179 805.927 -166.635C790.831 -142.759 776.567 -118.948 762.823 -96.0052C740.744 -59.1481 720.01 -24.5353 699.331 4.49105C665.821 51.5294 632.312 84.124 593.213 87.8392L593.226 87.9721C554.034 91.6255 522.959 64.9919 493.153 23.8071C478.24 3.19992 463.614 -21.0928 448.425 -47.1447C444.893 -53.2029 441.331 -59.3564 437.727 -65.5811C425.83 -86.1308 413.483 -107.458 400.294 -128.709C331.551 -239.464 240.082 -347.876 71.1543 -332.115C-46.6112 -321.108 -114.976 -279.905 -154.281 -232.68C-193.596 -185.444 -203.892 -132.119 -205.394 -96.7821L-206.393 -96.8246C-204.886 -132.298 -194.55 -185.861 -155.05 -233.319ZM-153.17 -278.425C-113.668 -325.894 -45.0369 -367.19 72.9648 -378.216C242.505 -394.035 334.271 -285.151 403.047 -174.342C416.245 -153.077 428.603 -131.732 440.501 -111.18C444.103 -104.957 447.664 -98.8069 451.193 -92.7538C466.381 -66.7029 480.985 -42.448 495.867 -21.8848C525.624 19.2339 556.371 45.4224 594.931 41.8806L594.913 41.6872C633.569 38.0687 666.876 5.82967 700.42 -41.2559C721.081 -70.257 741.775 -104.804 763.835 -141.629C777.581 -164.577 791.857 -188.41 806.986 -212.336C885.744 -336.897 987.469 -463.782 1156.96 -479.627C1274.92 -490.652 1340.63 -461.904 1376.45 -421.403C1412.25 -380.923 1418.08 -328.823 1416.58 -293.361L1415.58 -293.404C1417.08 -328.752 1411.25 -380.541 1375.7 -420.741C1340.16 -460.919 1274.83 -489.639 1157.05 -478.631C988.075 -462.835 886.578 -336.346 807.831 -211.802C792.735 -187.926 778.471 -164.115 764.727 -141.172C742.648 -104.315 721.913 -69.7021 701.235 -40.6756C667.723 6.36483 634.212 38.9604 595.111 42.6731L595.129 42.8665C555.938 46.5199 524.862 19.8864 495.057 -21.2985C480.143 -41.9055 465.517 -66.1984 450.329 -92.2502C446.797 -98.3084 443.235 -104.462 439.631 -110.687C427.734 -131.236 415.387 -152.564 402.197 -173.814C333.455 -284.569 241.986 -392.982 73.0578 -377.22C-44.7384 -366.214 -113.103 -325.01 -152.401 -277.785C-191.708 -230.55 -201.989 -177.225 -203.49 -141.888L-204.489 -141.93C-202.982 -177.403 -192.662 -230.967 -153.17 -278.425ZM-151.243 -323.53C-111.734 -370.999 -43.1027 -412.296 74.8684 -423.321C244.409 -439.171 336.174 -330.287 404.95 -219.478C418.147 -198.216 430.502 -176.874 442.399 -156.325C446.003 -150.099 449.566 -143.946 453.096 -137.89C468.284 -111.84 482.888 -87.5861 497.77 -67.0247C527.528 -25.9098 558.275 0.271083 596.835 -3.28605L596.817 -3.47941C635.472 -7.08268 668.78 -39.314 702.324 -86.3966C722.988 -115.402 743.687 -149.956 765.751 -186.79C779.493 -209.732 793.766 -233.559 808.889 -257.48C887.648 -382.049 989.373 -508.949 1158.86 -524.794C1276.86 -535.819 1342.56 -507.07 1378.37 -466.57C1414.17 -426.09 1419.99 -373.99 1418.48 -338.528L1417.48 -338.571C1418.98 -373.919 1413.17 -425.708 1377.62 -465.907C1342.1 -506.086 1276.76 -534.805 1158.96 -523.798C989.979 -508.001 888.482 -381.497 809.735 -256.945C794.643 -233.076 780.383 -209.27 766.643 -186.334C744.559 -149.467 723.821 -114.847 703.138 -85.8164C669.626 -38.779 636.116 -6.19108 597.015 -2.49357L597.033 -2.30009C557.841 1.36862 526.766 -25.2572 496.96 -66.4384C482.047 -87.0435 467.421 -111.335 452.233 -137.387C448.698 -143.449 445.133 -149.607 441.527 -155.836C429.632 -176.381 417.288 -197.704 404.101 -218.95C335.358 -329.705 243.889 -438.118 74.9614 -422.326C-42.8041 -411.319 -111.169 -370.116 -150.474 -322.891C-189.789 -275.655 -200.085 -222.33 -201.587 -186.993L-202.586 -187.036C-201.079 -222.509 -190.743 -276.072 -151.243 -323.53ZM-149.339 -368.697C-109.831 -416.166 -41.1991 -457.462 76.772 -468.488C246.313 -484.337 338.078 -375.454 406.854 -264.644C420.05 -243.383 432.406 -222.041 444.302 -201.493C447.907 -195.267 451.469 -189.113 455 -183.057C470.188 -157.007 484.792 -132.753 499.674 -112.191C529.432 -71.0765 560.178 -44.8957 598.739 -48.4527L598.721 -48.6462C637.376 -52.2494 670.683 -84.4808 704.227 -131.563C724.892 -160.568 745.59 -195.123 767.654 -231.957C781.397 -254.899 795.669 -278.726 810.793 -302.646C889.551 -427.215 991.276 -554.116 1160.77 -569.96C1278.76 -580.985 1344.46 -552.237 1380.28 -511.737C1416.07 -471.257 1421.89 -419.156 1420.38 -383.695L1419.38 -383.737C1420.89 -419.086 1415.07 -470.875 1379.53 -511.074C1344 -551.252 1278.67 -579.972 1160.86 -568.965C991.882 -553.168 890.386 -426.664 811.638 -302.112C796.547 -278.243 782.287 -254.437 768.547 -231.501C746.463 -194.634 725.724 -160.013 705.042 -130.983C671.53 -83.9456 638.019 -51.3578 598.918 -47.6603L598.937 -47.4668C559.745 -43.7981 528.669 -70.424 498.864 -111.605C483.95 -132.21 469.324 -156.502 454.136 -182.553C450.602 -188.615 447.038 -194.771 443.433 -200.999C431.537 -221.545 419.192 -242.87 406.004 -264.117C337.262 -374.872 245.793 -483.284 76.865 -467.492C-40.9005 -456.486 -109.265 -415.282 -148.571 -368.057C-187.885 -320.822 -198.182 -267.497 -199.683 -232.16L-200.682 -232.202C-199.175 -267.676 -188.839 -321.239 -149.339 -368.697ZM-147.374 -413.864C-107.866 -461.333 -39.2341 -502.629 78.7369 -513.655C248.278 -529.504 340.043 -420.621 408.819 -309.811C422.015 -288.55 434.371 -267.208 446.268 -246.659C449.872 -240.433 453.434 -234.28 456.965 -228.224C472.153 -202.173 486.757 -177.919 501.639 -157.358C531.381 -116.265 562.111 -90.09 600.643 -93.6139L600.624 -93.8128C639.279 -97.4162 672.587 -129.647 706.131 -176.73C726.795 -205.735 747.494 -240.29 769.558 -277.124C783.3 -300.066 797.573 -323.893 812.696 -347.813C891.455 -472.382 993.18 -599.283 1162.67 -615.127C1280.63 -626.152 1346.34 -597.404 1382.16 -556.903C1417.96 -516.424 1423.79 -464.323 1422.29 -428.862L1421.29 -428.904C1422.79 -464.252 1416.96 -516.042 1381.41 -556.241C1345.87 -596.419 1280.54 -625.139 1162.76 -614.131C993.786 -598.335 892.289 -471.831 813.542 -347.279C798.45 -323.409 784.19 -299.603 770.45 -276.667C748.366 -239.801 727.628 -205.18 706.945 -176.15C673.451 -129.137 639.958 -96.5583 600.883 -92.8328L600.901 -92.6336C561.71 -88.9648 530.634 -115.591 500.829 -156.772C485.915 -177.377 471.289 -201.669 456.101 -227.72C452.567 -233.781 449.003 -239.938 445.398 -246.165C433.502 -266.712 421.157 -288.036 407.969 -309.284C339.227 -420.039 247.758 -528.451 78.83 -512.659C-38.9355 -501.653 -107.3 -460.449 -146.606 -413.224C-185.92 -365.988 -196.217 -312.663 -197.718 -277.327L-198.717 -277.369C-197.21 -312.842 -186.874 -366.406 -147.374 -413.864ZM659.172 1007.3C625.63 1054.38 592.089 1086.99 552.944 1090.64L552.851 1089.64C591.506 1086.04 624.813 1053.81 658.357 1006.72C679.022 977.718 699.721 943.163 721.785 906.329C735.527 883.386 749.799 859.56 764.923 835.64C843.681 711.071 945.406 584.17 1114.9 568.326C1232.89 557.301 1298.59 586.049 1334.41 626.55C1370.2 667.029 1376.02 719.13 1374.51 754.591L1373.51 754.549C1375.02 719.2 1369.2 667.411 1333.66 627.212C1298.13 587.034 1232.8 558.314 1114.99 569.322C946.013 585.118 844.516 711.622 765.768 836.174C750.677 860.043 736.417 883.849 722.677 906.785C700.593 943.652 679.854 978.273 659.172 1007.3ZM661.075 962.136C627.533 1009.22 593.993 1041.82 554.847 1045.47L554.754 1044.47C593.409 1040.87 626.717 1008.64 660.261 961.556C680.925 932.551 701.624 897.996 723.688 861.162C737.431 838.22 751.703 814.393 766.827 790.473C845.585 665.904 947.31 539.004 1116.8 523.159C1234.79 512.134 1300.5 540.882 1336.31 581.383C1372.1 621.863 1377.92 673.963 1376.42 709.425L1375.42 709.382C1376.92 674.034 1371.11 622.244 1335.56 582.045C1300.03 541.867 1234.7 513.147 1116.89 524.155C947.916 539.951 846.419 666.456 767.672 791.007C752.58 814.877 738.32 838.682 724.581 861.618C702.497 898.485 681.758 933.106 661.075 962.136ZM662.979 916.97C629.437 964.049 595.897 996.653 556.751 1000.3L556.658 999.307C595.313 995.703 628.62 963.472 662.164 916.389C682.829 887.385 703.527 852.83 725.591 815.996C739.334 793.053 753.606 769.227 768.73 745.306C847.488 620.738 949.213 493.837 1118.7 477.993C1236.67 466.967 1302.37 495.716 1338.19 536.216C1373.99 576.696 1379.83 628.796 1378.32 664.258L1377.32 664.216C1378.82 628.867 1372.99 577.078 1337.44 536.879C1301.91 496.701 1236.57 467.981 1118.8 478.988C949.82 494.785 848.323 621.289 769.575 745.841C754.484 769.71 740.224 793.515 726.484 816.452C704.4 853.318 683.661 887.939 662.979 916.97ZM664.882 871.777C631.341 918.86 597.8 951.471 558.654 955.136L558.561 954.14C597.217 950.521 630.524 918.282 664.068 871.197C684.728 842.196 705.423 807.649 727.482 770.824C741.229 747.876 755.505 724.043 770.634 700.117C849.392 575.556 951.117 448.67 1120.61 432.826C1238.57 421.801 1304.27 450.549 1340.09 491.05C1375.89 531.529 1381.73 583.63 1380.22 619.091L1379.23 619.049C1380.73 583.7 1374.9 531.911 1339.34 491.712C1303.81 451.534 1238.48 422.814 1120.7 433.821C951.723 449.618 850.226 576.107 771.479 700.651C756.383 724.526 742.119 748.338 728.375 771.28C706.296 808.138 685.561 842.751 664.882 871.777ZM666.786 826.61C633.244 873.693 599.704 906.305 560.558 909.969L560.465 908.973C599.12 905.355 632.428 873.116 665.971 826.03C686.632 797.029 707.327 762.482 729.386 725.657C743.132 702.709 757.409 678.876 772.537 654.95C851.295 530.389 953.021 403.504 1122.51 387.659C1240.47 376.634 1306.18 405.382 1342 445.883C1377.8 486.363 1383.64 538.463 1382.13 573.925L1381.13 573.882C1382.63 538.534 1376.8 486.745 1341.25 446.545C1305.71 406.367 1240.38 377.647 1122.6 388.655C953.627 404.451 852.13 530.94 773.382 655.484C758.286 679.36 744.022 703.171 730.279 726.114C708.199 762.971 687.465 797.584 666.786 826.61ZM668.689 781.47C635.148 828.549 601.607 861.153 562.461 864.802L562.369 863.807C601.024 860.203 634.331 827.972 667.875 780.889C688.54 751.884 709.238 717.329 731.302 680.495C745.045 657.553 759.317 633.727 774.441 609.806C853.199 485.238 954.924 358.337 1124.41 342.492C1242.41 331.467 1308.11 360.216 1343.92 400.716C1379.72 441.196 1385.54 493.296 1384.03 528.758L1383.03 528.716C1384.53 493.367 1378.72 441.578 1343.17 401.379C1307.65 361.2 1242.31 332.481 1124.51 343.488C955.53 359.285 854.033 485.789 775.286 610.341C760.195 634.21 745.935 658.015 732.195 680.952C710.111 717.818 689.372 752.439 668.689 781.47ZM670.593 736.303C637.051 783.383 603.511 815.987 564.365 819.636L564.272 818.64C602.927 815.037 636.235 782.805 669.779 735.723C690.443 706.718 711.142 672.163 733.206 635.328C746.949 612.386 761.221 588.56 776.344 564.64C855.103 440.071 956.828 313.17 1126.32 297.326C1244.28 286.301 1309.99 315.049 1345.8 355.55C1381.61 396.029 1387.44 448.13 1385.94 483.591L1384.94 483.549C1386.44 448.2 1380.61 396.411 1345.06 356.212C1309.52 316.034 1244.19 287.314 1126.41 298.321C957.434 314.118 855.937 440.622 777.19 565.174C762.098 589.043 747.838 612.849 734.099 635.785C712.015 672.652 691.276 707.272 670.593 736.303ZM672.497 691.136C638.955 738.216 605.414 770.82 566.269 774.469L566.176 773.473C604.831 769.87 638.138 737.639 671.682 690.556C692.347 661.551 713.045 626.996 735.109 590.162C748.852 567.22 763.124 543.393 778.248 519.473C857.006 394.904 958.731 268.004 1128.22 252.159C1246.18 241.134 1311.89 269.882 1347.71 310.383C1383.51 350.863 1389.35 402.963 1387.84 438.425L1386.84 438.382C1388.34 403.034 1382.51 351.244 1346.96 311.045C1311.42 270.867 1246.09 242.147 1128.32 253.155C959.337 268.951 857.841 395.456 779.093 520.007C764.002 543.877 749.742 567.682 736.002 590.618C713.918 627.485 693.179 662.106 672.497 691.136ZM674.4 645.944C640.858 693.026 607.318 725.638 568.172 729.302L568.079 728.307C606.734 724.688 640.042 692.449 673.586 645.363C694.246 616.362 714.941 581.815 737 544.99C750.747 522.042 765.023 498.21 780.152 474.283C858.91 349.722 960.635 222.837 1130.13 206.992C1248.09 195.967 1313.79 224.716 1349.61 265.216C1385.41 305.696 1391.25 357.796 1389.74 393.258L1388.74 393.215C1390.25 357.867 1384.42 306.078 1348.86 265.879C1313.33 225.7 1247.99 196.981 1130.22 207.988C961.241 223.785 859.744 350.274 780.997 474.818C765.901 498.693 751.636 522.505 737.893 545.448C715.813 582.305 695.079 616.917 674.4 645.944ZM676.304 600.777C642.762 647.859 609.222 680.471 570.076 684.136L569.983 683.14C608.638 679.521 641.945 647.282 675.489 600.197C696.15 571.196 716.845 536.649 738.904 499.824C752.65 476.876 766.927 453.043 782.055 429.117C860.813 304.555 962.539 177.67 1132.03 161.826C1249.99 150.801 1315.7 179.549 1351.52 220.05C1387.32 260.529 1393.15 312.63 1391.65 348.091L1390.65 348.049C1392.15 312.7 1386.32 260.911 1350.77 220.712C1315.23 180.534 1249.9 151.814 1132.12 162.821C963.145 178.618 861.648 305.107 782.9 429.651C767.804 453.527 753.54 477.339 739.796 500.281C717.717 537.138 696.982 571.751 676.304 600.777ZM678.207 555.61C644.666 602.693 611.125 635.304 571.979 638.969L571.886 637.973C610.542 634.355 643.849 602.116 677.393 555.03C698.053 526.029 718.748 491.482 740.807 454.657C754.554 431.709 768.83 407.876 783.959 383.95C862.717 259.389 964.442 132.504 1133.93 116.659C1251.93 105.634 1317.63 134.382 1353.44 174.883C1389.23 215.363 1395.06 267.463 1393.55 302.925L1392.55 302.882C1394.05 267.534 1388.24 215.744 1352.69 175.545C1317.17 135.367 1251.83 106.647 1134.03 117.655C965.048 133.451 863.551 259.94 784.804 384.484C769.708 408.36 755.443 432.172 741.7 455.114C719.621 491.971 698.886 526.584 678.207 555.61ZM678.392 501.325C644.85 548.407 611.309 581.019 572.164 584.683L572.07 583.687C610.726 580.069 644.033 547.83 677.577 500.744C698.238 471.743 718.932 437.196 740.992 400.371C754.738 377.423 769.015 353.591 784.143 329.664C862.901 205.103 964.626 78.218 1134.12 62.3734C1252.11 51.3483 1317.81 80.0966 1353.63 120.597C1389.42 161.077 1395.24 213.177 1393.73 248.639L1392.73 248.596C1394.24 213.248 1388.42 161.459 1352.88 121.26C1317.35 81.0814 1252.02 52.3615 1134.21 63.369C965.232 79.1656 863.736 205.655 784.988 330.199C769.892 354.074 755.627 377.886 741.884 400.829C719.805 437.686 699.07 472.298 678.392 501.325ZM687.91 275.491C654.368 322.574 620.827 355.185 581.682 358.85L581.588 357.854C620.244 354.235 653.551 321.997 687.095 274.911C707.756 245.91 728.451 211.363 750.51 174.537C764.256 151.589 778.533 127.757 793.661 103.831C872.419 -20.7303 974.144 -147.616 1143.63 -163.46C1261.6 -174.485 1327.3 -145.737 1363.12 -105.236C1398.92 -64.7565 1404.76 -12.6562 1403.25 22.8055L1402.25 22.763C1403.75 -12.5855 1397.92 -64.3747 1362.37 -104.574C1326.84 -144.752 1261.5 -173.472 1143.73 -162.464C974.75 -146.668 873.253 -20.1789 794.506 104.365C779.41 128.241 765.146 152.052 751.402 174.995C729.323 211.852 708.588 246.465 687.91 275.491Z" fill="#F0B342"></path></g><defs><clipPath id="clip0_3860_38824"><rect width="1136" height="600" fill="white"></rect></clipPath></defs></svg>